<svg version="1.1" id="Layer_1" xmlns="http://www.w3.org/2000/svg" xmlns:xlink="http://www.w3.org/1999/xlink" x="0px" y="0px"
	 width="100%" viewBox="0 0 1385 433" enable-background="new 0 0 1385 433" xml:space="preserve">
<path fill="#FEFEFE" opacity="1.000000" stroke="none" 
	d="
M890.000000,434.000000 
	C593.333374,434.000000 297.166687,434.000000 1.000040,434.000000 
	C1.000026,289.666687 1.000026,145.333389 1.000013,1.000059 
	C462.666626,1.000039 924.333252,1.000039 1386.000000,1.000020 
	C1386.000000,145.333267 1386.000000,289.666534 1386.000000,433.999908 
	C1220.833374,434.000000 1055.666626,434.000000 890.000000,434.000000 
M224.855881,123.141457 
	C224.964996,122.817078 225.074112,122.492706 225.835220,121.588005 
	C225.835220,112.977791 225.835220,104.367577 225.835220,95.266907 
	C249.262390,95.266907 271.979462,95.266907 294.685150,95.266907 
	C294.685150,83.868286 294.685150,72.971039 294.685150,62.089226 
	C257.908661,62.089226 221.447678,62.089226 184.853210,62.089226 
	C184.853210,113.118698 184.853210,163.985992 184.853210,214.726685 
	C221.608963,214.726685 258.010773,214.726685 294.431213,214.726685 
	C294.431213,203.617737 294.431213,192.856339 294.431213,181.613937 
	C271.583557,181.613937 248.998230,181.613937 226.197586,181.613937 
	C226.197586,172.496658 226.197586,163.861420 227.109192,155.212051 
	C247.701874,155.212051 268.294556,155.212051 288.812347,155.212051 
	C288.812347,143.720993 288.812347,132.840256 288.812347,121.832306 
	C269.472687,121.832306 250.488174,121.790497 231.504883,121.923218 
	C230.191620,121.932404 228.396317,122.946541 227.738510,124.041847 
	C227.235992,124.878586 227.790756,126.887619 228.545288,127.849571 
	C231.935623,132.171906 236.695862,134.310486 242.026245,133.916962 
	C245.273239,133.677246 247.217148,134.952789 247.491531,137.435547 
	C247.677200,139.115585 246.183975,141.712601 244.661148,142.722031 
	C238.435516,146.848770 231.909836,150.522812 224.760422,154.687759 
	C222.844467,154.291168 220.504684,154.414322 219.159714,153.317535 
	C218.244324,152.571075 218.310471,150.026337 218.659073,148.444702 
	C219.454285,144.836716 221.385696,141.360382 221.561386,137.767273 
	C221.746033,133.991348 221.348633,129.464630 215.381180,129.745087 
	C214.649826,129.779449 213.866837,128.715286 213.294800,128.296967 
	C216.983551,126.929855 220.260132,125.715500 223.941559,124.242744 
	C224.198593,124.026917 224.355087,123.753540 224.855881,123.141457 
M990.610596,383.436584 
	C990.750305,384.010681 990.889954,384.584778 990.599731,385.777893 
	C987.185059,386.043945 983.770325,386.310028 980.355652,386.576111 
	C980.321716,386.916504 980.287781,387.256897 980.253906,387.597260 
	C984.202576,387.925903 988.151245,388.254517 992.358276,388.604645 
	C990.050232,390.628326 986.423096,392.424072 986.523682,393.978546 
	C986.832275,398.746643 987.339233,404.409912 990.101929,407.853699 
	C992.820923,411.243164 993.611572,413.340973 991.152893,416.932770 
	C992.333252,416.993469 993.123474,417.066254 993.913940,417.069183 
	C997.403442,417.082001 1000.892944,417.074738 1003.954163,417.074738 
	C1004.296997,414.807709 1004.295105,412.733337 1004.955933,410.897522 
	C1006.204773,407.428314 1008.458252,404.216644 1009.141541,400.675507 
	C1009.918640,396.648071 1010.016113,392.046417 1003.734436,391.776489 
	C1003.146545,391.751221 1002.594055,390.903992 1000.823853,389.455292 
	C1003.274109,389.455292 1004.277344,389.354614 1005.254578,389.471466 
	C1012.209290,390.302917 1017.995422,385.288116 1018.001648,378.371002 
	C1018.007812,371.428070 1018.003052,364.485107 1018.003052,357.139740 
	C1039.236572,357.139740 1059.964600,357.139740 1080.789429,357.139740 
	C1080.789429,345.837799 1080.789429,334.951050 1080.789429,323.665405 
	C1059.771362,323.665405 1039.036011,323.665405 1018.329773,323.665405 
	C1018.329773,314.702148 1018.329773,306.144989 1018.329773,297.262085 
	C1041.247681,297.262085 1063.841675,297.262085 1086.679932,297.262085 
	C1086.679932,286.039734 1086.679932,275.151794 1086.679932,264.162598 
	C1049.867554,264.162598 1013.307556,264.162598 976.841187,264.162598 
	C976.606201,264.688049 976.360962,264.980530 976.360718,265.273193 
	C976.328064,303.580261 976.292603,341.887390 976.376587,380.194244 
	C976.379822,381.659210 977.542175,383.121643 978.164368,384.585236 
	C978.580566,384.522125 978.996826,384.458984 979.413025,384.395874 
	C977.230774,378.807220 978.063232,374.115936 981.590637,371.915680 
	C981.860901,368.094299 981.099670,364.801117 982.394897,363.373199 
	C985.393555,360.067291 989.387329,357.664032 993.865601,355.271454 
	C992.575867,358.229614 991.286072,361.187805 989.764038,364.678802 
	C989.787537,364.678802 988.924133,364.506989 988.164795,364.715027 
	C986.646667,365.130890 985.185608,365.754944 983.700989,366.293030 
	C985.139648,366.932922 986.542969,368.018280 988.023132,368.136017 
	C994.632141,368.661682 1001.263123,368.911102 1007.445374,369.977112 
	C1007.929504,371.480377 1008.413696,372.983643 1008.084534,374.379822 
	C1006.019653,374.582458 1003.954773,374.785095 1001.495300,374.333405 
	C1002.075256,373.898499 1002.655151,373.463623 1003.799561,373.013092 
	C1004.110779,372.549500 1004.422058,372.085907 1004.733337,371.622314 
	C1004.208923,371.568542 1003.684448,371.514771 1002.333618,371.607666 
	C998.428406,371.398621 994.523193,371.189575 990.905212,370.995911 
	C990.957275,372.128845 990.997498,373.003448 990.547607,374.624695 
	C987.547485,373.090424 984.203186,372.198639 982.222778,375.515289 
	C981.223816,377.188354 981.290527,380.456360 982.299194,382.160065 
	C984.115540,385.227570 987.299988,384.610413 990.610596,383.436584 
M534.950012,61.237873 
	C534.945007,61.421673 534.940002,61.605473 534.023071,61.916618 
	C531.523743,61.920330 529.002808,62.133156 526.530273,61.877575 
	C523.030273,61.515785 521.364136,62.651737 520.193848,66.244247 
	C506.051727,109.657181 491.695923,153.000473 477.405518,196.365112 
	C475.397583,202.458267 473.441681,208.568558 471.382294,214.915527 
	C486.600159,214.915527 501.228119,214.915527 516.143127,214.915527 
	C518.770386,206.295486 521.285767,197.704849 524.086365,189.208191 
	C524.519409,187.894424 526.247925,186.084137 527.397583,186.069275 
	C543.373108,185.862717 559.352234,185.929459 575.489014,185.929459 
	C578.492310,195.765717 581.422974,205.364243 584.280945,214.724426 
	C599.400940,214.724426 614.095215,214.724426 629.114685,214.724426 
	C612.233276,163.589874 595.488159,112.867981 578.601379,61.717014 
	C573.049988,61.717014 567.569824,61.717014 562.224792,61.419868 
	C562.224792,61.419868 562.068542,61.133266 562.337097,60.518810 
	C562.010681,56.265789 560.095825,53.816608 555.448975,53.988998 
	C551.164368,54.147949 546.859985,54.200596 542.581177,53.976524 
	C537.654663,53.718529 535.667419,56.318161 534.950012,61.237873 
M1009.507019,116.499733 
	C1009.507019,149.248047 1009.507019,181.996368 1009.507019,214.813766 
	C1023.623657,214.813766 1037.197998,214.813766 1051.329224,214.813766 
	C1051.329224,188.090225 1051.329224,161.620117 1051.329224,134.054962 
	C1052.739990,135.947479 1053.452026,136.840225 1054.098022,137.778473 
	C1071.074951,162.435501 1088.027344,187.109436 1105.063965,211.725220 
	C1106.002930,213.081955 1107.609375,214.886169 1108.942017,214.917740 
	C1119.866577,215.176346 1130.799805,215.063568 1141.790771,215.063568 
	C1141.790771,163.793686 1141.790771,113.052795 1141.790771,62.154343 
	C1128.002319,62.154343 1114.423706,62.154343 1100.284912,62.154343 
	C1100.284912,88.865463 1100.284912,115.355560 1100.284912,143.139267 
	C1098.485229,140.754272 1097.455566,139.505692 1096.550293,138.172760 
	C1080.103149,113.958527 1063.686401,89.723785 1047.196655,65.538620 
	C1046.244995,64.142815 1044.751709,62.130779 1043.469849,62.099960 
	C1032.201538,61.829067 1020.924011,61.943043 1009.506958,61.943043 
	C1009.506958,80.183754 1009.506958,97.841736 1009.507019,116.499733 
M651.558044,189.903595 
	C655.260193,193.716782 658.569885,198.036819 662.729919,201.258759 
	C685.219543,218.676697 710.548889,221.063416 736.929443,213.225479 
	C759.939880,206.388809 774.268555,190.321609 778.497803,166.739380 
	C780.647278,154.754044 780.019775,142.270691 780.658875,129.792603 
	C757.318359,129.792603 734.910095,129.792603 712.468506,129.792603 
	C712.468506,139.657776 712.468506,149.226456 712.468506,159.072830 
	C717.248291,159.072830 721.728149,159.072830 726.208008,159.072830 
	C730.768860,159.072830 735.329773,159.072830 739.909973,159.072830 
	C739.262024,171.470306 732.799438,178.025253 719.534668,180.401321 
	C700.394592,183.829865 686.434814,175.511658 681.341125,157.149277 
	C677.893311,144.720276 677.906738,132.057404 681.386292,119.633713 
	C686.423157,101.649628 701.678345,92.845711 719.920715,96.948959 
	C727.226807,98.592323 732.393127,102.744194 735.584412,109.607269 
	C736.200562,110.932335 738.302917,112.323494 739.763855,112.372635 
	C747.751343,112.641357 755.752625,112.500771 763.749207,112.500824 
	C768.490479,112.500854 773.231750,112.500824 778.320312,112.500824 
	C776.912537,99.939682 772.264160,89.667839 764.087646,81.146286 
	C746.652771,62.975552 724.723206,57.860905 700.604370,60.497566 
	C682.258911,62.503078 666.724792,70.461411 654.304382,84.410210 
	C630.560486,111.076027 630.678406,162.881866 651.558044,189.903595 
M927.509521,417.075592 
	C937.113770,417.075592 946.717957,417.075592 956.456665,417.075592 
	C956.456665,365.794220 956.456665,315.068359 956.456665,264.275879 
	C942.510559,264.275879 928.814453,264.275879 914.820862,264.275879 
	C914.820862,284.225098 914.820862,303.824127 914.820862,323.564819 
	C896.461731,323.564819 878.405884,323.564819 859.886047,323.564819 
	C859.886047,303.578339 859.886047,283.849579 859.886047,264.203674 
	C845.839844,264.203674 832.260498,264.203674 818.544556,264.203674 
	C818.544556,315.209106 818.544556,365.934967 818.544556,416.775269 
	C832.491211,416.775269 846.186951,416.775269 860.179993,416.775269 
	C860.179993,396.773956 860.179993,377.175140 860.179993,357.435608 
	C878.539185,357.435608 896.595032,357.435608 915.114868,357.435608 
	C915.114868,377.422546 915.114868,397.151337 915.114868,417.075592 
	C919.223938,417.075592 922.869507,417.075592 927.509521,417.075592 
M26.498087,167.499710 
	C26.498087,183.274918 26.498087,199.050110 26.498087,214.787521 
	C40.665375,214.787521 54.248821,214.787521 68.346222,214.787521 
	C68.346222,194.790604 68.346222,175.076019 68.346222,155.410706 
	C86.800179,155.410706 104.734718,155.410706 123.158546,155.410706 
	C123.158546,175.373581 123.158546,195.101898 123.158546,214.830933 
	C137.242081,214.830933 150.832382,214.830933 164.610962,214.830933 
	C164.610962,163.856812 164.610962,113.125305 164.610962,62.257584 
	C150.684555,62.257584 136.983871,62.257584 122.948700,62.257584 
	C122.948700,82.184837 122.948700,101.783363 122.948700,121.561615 
	C104.554138,121.561615 86.497887,121.561615 67.953995,121.561615 
	C67.953995,101.574570 67.953995,81.850342 67.953995,62.256699 
	C53.905151,62.256699 40.346916,62.256699 26.498131,62.256699 
	C26.498131,97.223915 26.498131,131.861801 26.498087,167.499710 
M1225.064697,396.473907 
	C1239.464722,373.351288 1231.721802,344.898102 1207.295288,332.977722 
	C1200.063599,329.448578 1192.087280,327.367157 1184.336792,325.000122 
	C1175.319214,322.246124 1166.062256,320.242462 1157.133667,317.244293 
	C1152.773560,315.780182 1150.434937,311.940369 1150.945312,306.922058 
	C1151.420044,302.251770 1154.105713,299.420013 1158.277344,297.707855 
	C1172.769653,291.759918 1185.685547,297.314087 1190.772827,311.809601 
	C1203.218994,311.809601 1215.711548,311.814148 1228.204102,311.791687 
	C1228.666382,311.790863 1229.128052,311.526031 1229.557861,311.394135 
	C1231.026367,294.896210 1220.578979,277.521240 1203.888428,269.095337 
	C1188.753784,261.454895 1172.584717,260.564575 1156.140015,262.715393 
	C1141.918457,264.575439 1129.423950,270.057312 1119.014282,280.365540 
	C1103.951050,295.282074 1100.095459,331.365723 1128.205688,345.108917 
	C1136.031860,348.935150 1144.588989,351.370789 1152.965454,353.939606 
	C1162.465820,356.853119 1172.218628,358.947266 1181.705566,361.899139 
	C1186.464233,363.379791 1189.620117,367.071869 1189.399414,372.411072 
	C1189.182495,377.659088 1185.782349,380.881622 1181.163940,382.700073 
	C1173.763428,385.613922 1166.178833,385.362427 1158.604858,383.357849 
	C1148.380615,380.651733 1143.986572,373.206055 1142.856812,363.394135 
	C1129.764038,363.394135 1116.985107,363.394135 1104.227295,363.394135 
	C1102.359375,386.288605 1114.286987,403.880310 1131.902832,411.645660 
	C1150.143433,419.686523 1169.272339,420.475037 1188.692993,417.255646 
	C1203.093872,414.868408 1215.788452,409.335297 1225.064697,396.473907 
M1335.796265,265.576538 
	C1324.222412,261.599304 1312.236938,261.057556 1300.256958,262.197449 
	C1283.923828,263.751526 1269.128418,269.173737 1257.987915,281.995056 
	C1240.053589,302.634979 1245.646851,333.608826 1269.952881,345.897552 
	C1277.262573,349.593170 1285.477783,351.589722 1293.399170,353.960114 
	C1302.925781,356.810852 1312.671753,358.946259 1322.141602,361.960663 
	C1326.583984,363.374664 1329.894409,366.816284 1329.792236,372.005859 
	C1329.688965,377.245911 1326.455688,380.483978 1321.908203,382.564758 
	C1305.039917,390.283081 1287.491577,381.895660 1283.326538,364.145935 
	C1283.256836,363.849518 1282.951294,363.608398 1282.785400,363.381805 
	C1269.967651,363.381805 1257.183105,363.381805 1243.982910,363.381805 
	C1244.001465,379.204071 1247.960449,393.159088 1260.099487,403.816650 
	C1271.515015,413.838928 1285.479492,417.218964 1300.122437,418.431030 
	C1317.278687,419.851227 1334.113770,418.656342 1349.674683,410.401184 
	C1364.128052,402.733612 1371.570557,390.539093 1372.184326,374.149506 
	C1372.817505,357.242401 1366.328735,344.098389 1351.842041,335.089020 
	C1342.219238,329.104614 1331.436279,326.487518 1320.558105,323.963318 
	C1312.822632,322.168396 1305.130127,320.021210 1297.641113,317.396057 
	C1293.515991,315.950012 1290.983765,312.417603 1291.186401,307.648163 
	C1291.392456,302.798309 1293.881836,299.358734 1298.424805,297.890930 
	C1312.392822,293.377838 1327.888672,295.261810 1330.918091,311.616882 
	C1343.836060,311.616882 1356.773438,311.616882 1369.686157,311.616882 
	C1371.759766,292.330414 1358.380371,273.971741 1335.796265,265.576538 
M336.977112,174.443787 
	C328.800049,187.794800 320.622986,201.145813 312.093353,215.072449 
	C325.960175,215.072449 338.802368,214.665085 351.599182,215.250320 
	C357.678986,215.528336 361.004791,213.665863 363.365906,208.201965 
	C365.395447,203.505493 368.383545,199.222794 370.953217,194.760284 
	C375.793823,186.354080 380.638336,177.950150 385.833588,168.933746 
	C387.199158,171.085831 388.117035,172.417328 388.919556,173.815079 
	C396.198517,186.492828 403.412628,199.208252 410.787048,211.830078 
	C411.575500,213.179565 413.251465,214.912430 414.538086,214.931168 
	C429.458862,215.148544 444.383911,215.070129 460.038879,215.070129 
	C458.800446,213.056442 457.961273,211.682434 457.112976,210.314117 
	C443.013092,187.571136 428.960907,164.798248 414.744537,142.128311 
	C413.119019,139.536148 412.918030,137.719635 414.565613,135.039673 
	C422.657959,121.876549 430.534485,108.580460 438.454681,95.311874 
	C444.975128,84.388268 451.449951,73.437439 458.283783,61.928043 
	C443.072327,61.928043 428.621643,61.848587 414.175201,62.059948 
	C412.838013,62.079510 411.072693,63.676105 410.280457,65.002792 
	C405.771667,72.552986 401.506714,80.248581 397.141846,87.885010 
	C393.563934,94.144600 389.962219,100.390602 385.974884,107.332314 
	C384.550018,104.921280 383.613647,103.395554 382.733398,101.838112 
	C375.868774,89.692039 369.057800,77.515198 362.099579,65.423050 
	C361.294373,64.023712 359.705353,62.101547 358.453400,62.081696 
	C343.729218,61.848175 329.000031,61.931732 313.599854,61.931732 
	C314.810913,64.030533 315.605530,65.441696 316.431702,66.834167 
	C329.997864,89.699173 343.526245,112.586884 357.200867,135.386856 
	C358.591156,137.704880 358.637695,139.248215 357.182434,141.548279 
	C350.431549,152.218018 343.906982,163.030930 336.977112,174.443787 
M657.842651,361.606049 
	C664.578125,399.772034 698.611206,423.507965 739.785156,418.755737 
	C772.408325,414.990417 800.373291,388.247131 798.833740,362.052826 
	C785.064880,362.052826 771.282715,362.052826 757.553101,362.052826 
	C754.554199,371.721954 751.920532,375.678680 746.261230,379.108521 
	C731.813049,387.864838 710.981445,382.257416 703.912231,366.985138 
	C696.354614,350.658203 696.753967,333.626740 702.732727,316.923920 
	C707.575073,303.395874 719.258484,296.860657 734.423706,298.070892 
	C746.938721,299.069641 754.371521,306.362427 757.574219,320.825897 
	C771.442505,320.825897 785.319763,320.825897 799.458801,320.825897 
	C797.093201,297.870239 787.059082,280.279510 766.338257,269.896210 
	C747.679260,260.546173 728.003906,259.458496 708.037292,264.647308 
	C687.932312,269.872040 673.084229,281.970612 664.036316,300.744843 
	C654.784302,319.942444 654.336060,340.180084 657.842651,361.606049 
M1069.499268,417.071411 
	C1075.117920,417.071411 1080.736450,417.071411 1086.108887,417.071411 
	C1086.108887,405.591827 1086.108887,394.684906 1086.108887,383.649719 
	C1063.603760,383.649719 1041.482544,383.649719 1018.530945,383.649719 
	C1018.045288,386.079163 1016.477600,389.001038 1017.244202,391.049103 
	C1019.201477,396.278015 1024.296021,398.841522 1029.295776,399.545837 
	C1032.515503,399.999420 1035.372192,400.171448 1035.280151,403.458160 
	C1035.227661,405.332581 1032.773193,407.808899 1030.790405,408.831879 
	C1025.312012,411.658325 1019.513123,413.863281 1013.840942,416.313904 
	C1013.923096,416.566406 1014.005249,416.818909 1014.087402,417.071411 
	C1032.224731,417.071411 1050.361938,417.071411 1069.499268,417.071411 
M983.055847,111.374435 
	C971.754639,91.792107 960.400146,72.240074 949.215271,52.591499 
	C947.713257,49.952980 946.119873,48.922539 943.023560,48.934940 
	C912.032654,49.059074 881.040894,49.049484 850.049866,48.941433 
	C847.357361,48.932045 845.946594,49.764477 844.621765,52.075726 
	C829.160156,79.049889 813.623474,105.981407 797.977356,132.848907 
	C796.502380,135.381760 796.686096,137.195663 798.087585,139.607224 
	C813.623779,166.340408 829.076904,193.121979 844.486206,219.928589 
	C845.753906,222.133942 847.052490,223.235626 849.864136,223.224106 
	C881.188293,223.095703 912.513367,223.188797 943.837097,223.016800 
	C945.524475,223.007538 947.919861,221.590332 948.777161,220.122589 
	C964.456787,193.280991 979.909363,166.306808 995.553467,139.444275 
	C997.034302,136.901566 996.960754,135.095520 995.484680,132.686356 
	C991.316223,125.882713 987.386353,118.932884 983.055847,111.374435 
M540.502502,26.993559 
	C539.668762,27.806328 538.930176,28.758465 537.983154,29.405415 
	C535.277222,31.253904 535.753662,33.711880 537.676270,35.182308 
	C538.836914,36.069935 541.304688,35.442814 543.143188,35.190609 
	C544.724731,34.973663 546.246826,34.323360 547.795166,33.864666 
	C543.636597,39.631420 537.317261,43.295509 539.133423,51.555351 
	C545.425110,51.555351 551.647827,51.555351 557.668945,51.555351 
	C558.466125,42.327969 562.920349,33.460339 557.834961,24.378513 
	C564.138245,29.719774 561.284302,36.980671 563.052612,43.389706 
	C564.084595,38.932465 564.638977,34.435089 564.124023,30.063660 
	C563.099121,21.362762 555.740540,19.046722 549.816345,16.868073 
	C546.859497,20.112425 543.946411,23.308760 540.502502,26.993559 
M1022.035400,405.841980 
	C1020.324768,406.388245 1018.614197,406.934509 1016.903564,407.480774 
	C1016.700073,406.970367 1016.496521,406.459961 1016.293030,405.949554 
	C1019.172546,404.476410 1022.052063,403.003235 1024.483154,401.759491 
	C1020.636414,398.304260 1016.779663,394.840057 1012.114807,390.649994 
	C1011.744568,395.536255 1011.276733,400.316193 1011.082581,405.107269 
	C1011.022827,406.580719 1011.711548,408.084473 1012.124756,409.864075 
	C1011.008240,410.417328 1009.449890,411.018524 1008.102539,411.931335 
	C1007.454712,412.370148 1007.205322,413.397217 1006.775513,414.157928 
	C1007.702576,414.494476 1008.844849,415.361450 1009.523682,415.086060 
	C1016.890320,412.098022 1024.206665,408.980865 1031.460327,405.728424 
	C1032.125732,405.430084 1032.263306,403.954559 1032.645996,403.025665 
	C1031.788208,402.800018 1030.792114,402.177917 1030.097290,402.420013 
	C1027.600708,403.289978 1025.205811,404.451935 1022.035400,405.841980 
M223.990097,141.187286 
	C224.463425,142.881134 224.936768,144.574997 225.526428,146.685135 
	C225.157120,146.924088 224.157898,147.303009 223.560349,148.017731 
	C222.576691,149.194290 221.853073,150.588257 221.019821,151.890564 
	C222.453918,151.668945 224.091400,151.817612 225.286591,151.161087 
	C230.237213,148.441666 235.198105,145.689316 239.851791,142.505554 
	C241.813736,141.163315 245.953033,141.463257 244.999405,137.177231 
	C242.696396,137.909195 240.310944,138.453629 238.111252,139.420639 
	C235.361389,140.629501 232.764313,142.185913 230.101288,143.592285 
	C229.806061,143.051514 229.510849,142.510757 229.215622,141.969986 
	C231.890472,140.204590 234.565308,138.439178 236.814117,136.954971 
	C232.537949,133.987488 228.282883,131.034653 223.328995,127.596863 
	C223.173264,128.582611 222.725754,129.839462 222.832535,131.047348 
	C223.106537,134.147583 223.626602,137.226074 223.990097,141.187286 
M980.142761,391.646912 
	C974.620972,403.935577 974.619934,403.939301 984.991638,406.783173 
	C985.194397,406.838745 985.508240,406.489288 985.070740,406.757233 
	C984.383606,401.458038 983.740784,396.500549 983.024414,390.976349 
	C982.844421,390.976349 981.669189,390.976349 980.142761,391.646912 
M990.182434,413.183502 
	C989.942383,412.472076 989.874939,411.281952 989.435608,411.123566 
	C985.223572,409.605347 980.948792,408.261292 976.437317,406.783936 
	C976.754700,411.296783 983.552917,414.520416 990.182434,413.183502 
z"/>
<path fill="#010101" opacity="1.000000" stroke="none" 
	d="
M1009.506958,115.999725 
	C1009.506958,97.841736 1009.506958,80.183754 1009.506958,61.943043 
	C1020.924011,61.943043 1032.201538,61.829067 1043.469849,62.099960 
	C1044.751709,62.130779 1046.244995,64.142815 1047.196655,65.538620 
	C1063.686401,89.723785 1080.103149,113.958527 1096.550293,138.172760 
	C1097.455566,139.505692 1098.485229,140.754272 1100.284912,143.139267 
	C1100.284912,115.355560 1100.284912,88.865463 1100.284912,62.154343 
	C1114.423706,62.154343 1128.002319,62.154343 1141.790771,62.154343 
	C1141.790771,113.052795 1141.790771,163.793686 1141.790771,215.063568 
	C1130.799805,215.063568 1119.866577,215.176346 1108.942017,214.917740 
	C1107.609375,214.886169 1106.002930,213.081955 1105.063965,211.725220 
	C1088.027344,187.109436 1071.074951,162.435501 1054.098022,137.778473 
	C1053.452026,136.840225 1052.739990,135.947479 1051.329224,134.054962 
	C1051.329224,161.620117 1051.329224,188.090225 1051.329224,214.813766 
	C1037.197998,214.813766 1023.623657,214.813766 1009.507019,214.813766 
	C1009.507019,181.996368 1009.507019,149.248047 1009.506958,115.999725 
M1034.944824,192.362823 
	C1034.589355,189.602341 1034.233765,186.841858 1033.875122,184.057007 
	C1035.907837,183.329437 1037.497925,182.760315 1039.840454,181.921844 
	C1034.637329,179.471695 1034.926758,176.492828 1036.981201,172.589645 
	C1039.489624,167.823776 1036.847778,162.636398 1032.693115,162.440094 
	C1032.693115,160.215729 1032.693115,158.010742 1032.693115,154.987320 
	C1031.135986,155.507004 1029.328247,155.549408 1028.806152,156.390106 
	C1027.256104,158.886597 1025.910278,161.605911 1025.059570,164.412415 
	C1024.292969,166.941620 1023.276306,170.115509 1024.161255,172.268829 
	C1025.801270,176.259338 1026.706543,179.403076 1021.360352,182.160233 
	C1023.851746,182.867081 1025.362915,183.295807 1028.212402,184.104263 
	C1026.684570,189.247665 1025.547852,194.285095 1023.671753,199.030243 
	C1021.987671,203.289719 1019.490906,207.227890 1017.101868,211.786224 
	C1026.664551,211.786224 1034.854980,211.786224 1043.836060,211.786224 
	C1042.762451,209.015854 1042.071045,206.779877 1041.053589,204.703735 
	C1039.148438,200.816071 1037.054443,197.021027 1034.944824,192.362823 
z"/>
<path fill="#010101" opacity="1.000000" stroke="none" 
	d="
M651.333191,189.622284 
	C630.678406,162.881866 630.560486,111.076027 654.304382,84.410210 
	C666.724792,70.461411 682.258911,62.503078 700.604370,60.497566 
	C724.723206,57.860905 746.652771,62.975552 764.087646,81.146286 
	C772.264160,89.667839 776.912537,99.939682 778.320312,112.500824 
	C773.231750,112.500824 768.490479,112.500854 763.749207,112.500824 
	C755.752625,112.500771 747.751343,112.641357 739.763855,112.372635 
	C738.302917,112.323494 736.200562,110.932335 735.584412,109.607269 
	C732.393127,102.744194 727.226807,98.592323 719.920715,96.948959 
	C701.678345,92.845711 686.423157,101.649628 681.386292,119.633713 
	C677.906738,132.057404 677.893311,144.720276 681.341125,157.149277 
	C686.434814,175.511658 700.394592,183.829865 719.534668,180.401321 
	C732.799438,178.025253 739.262024,171.470306 739.909973,159.072830 
	C735.329773,159.072830 730.768860,159.072830 726.208008,159.072830 
	C721.728149,159.072830 717.248291,159.072830 712.468506,159.072830 
	C712.468506,149.226456 712.468506,139.657776 712.468506,129.792603 
	C734.910095,129.792603 757.318359,129.792603 780.658875,129.792603 
	C780.019775,142.270691 780.647278,154.754044 778.497803,166.739380 
	C774.268555,190.321609 759.939880,206.388809 736.929443,213.225479 
	C710.548889,221.063416 685.219543,218.676697 662.729919,201.258759 
	C658.569885,198.036819 655.260193,193.716782 651.333191,189.622284 
z"/>
<path fill="#030303" opacity="1.000000" stroke="none" 
	d="
M927.012268,417.075592 
	C922.869507,417.075592 919.223938,417.075592 915.114868,417.075592 
	C915.114868,397.151337 915.114868,377.422546 915.114868,357.435608 
	C896.595032,357.435608 878.539185,357.435608 860.179993,357.435608 
	C860.179993,377.175140 860.179993,396.773956 860.179993,416.775269 
	C846.186951,416.775269 832.491211,416.775269 818.544556,416.775269 
	C818.544556,365.934967 818.544556,315.209106 818.544556,264.203674 
	C832.260498,264.203674 845.839844,264.203674 859.886047,264.203674 
	C859.886047,283.849579 859.886047,303.578339 859.886047,323.564819 
	C878.405884,323.564819 896.461731,323.564819 914.820862,323.564819 
	C914.820862,303.824127 914.820862,284.225098 914.820862,264.275879 
	C928.814453,264.275879 942.510559,264.275879 956.456665,264.275879 
	C956.456665,315.068359 956.456665,365.794220 956.456665,417.075592 
	C946.717957,417.075592 937.113770,417.075592 927.012268,417.075592 
M832.928101,403.735321 
	C837.510437,403.735321 842.092773,403.735321 846.621826,403.735321 
	C846.621826,399.118927 846.621826,395.208466 846.621826,391.216217 
	C841.118347,391.216217 835.888245,391.216217 830.226379,391.216217 
	C830.226379,393.564362 829.993530,395.713104 830.292786,397.785004 
	C830.584290,399.803131 831.420166,401.742615 832.928101,403.735321 
M847.582031,383.098236 
	C845.050903,383.858582 842.379700,385.689789 840.744934,381.554749 
	C840.570679,381.114044 837.050781,381.116943 836.168091,381.999451 
	C833.476746,384.690216 831.511230,385.195801 829.163940,381.718994 
	C828.717041,381.057068 827.052673,381.217041 825.455627,380.899506 
	C825.700378,383.066650 825.856812,384.451569 825.988403,385.616394 
	C834.690979,385.616394 842.929749,385.616394 851.773987,385.616394 
	C851.447510,383.892578 851.192200,382.544495 850.936890,381.196411 
	C849.893433,381.561951 848.849976,381.927490 847.582031,383.098236 
M845.368774,413.641876 
	C838.233093,413.641876 831.097351,413.641876 823.961670,413.641876 
	C823.983948,414.111053 824.006287,414.580261 824.028564,415.049438 
	C833.701538,415.049438 843.374451,415.049438 853.047424,415.049438 
	C853.057556,414.580292 853.067749,414.111115 853.077881,413.641968 
	C850.826721,413.641968 848.575500,413.641968 845.368774,413.641876 
M846.798462,405.333130 
	C840.650513,405.938782 834.078979,403.471924 828.454041,407.853638 
	C835.226501,407.853638 841.998962,407.853638 849.329346,407.853638 
	C848.558838,406.872406 848.085327,406.269287 846.798462,405.333130 
M832.886536,387.208344 
	C831.397827,387.301971 829.909119,387.395630 827.476868,387.548615 
	C832.689148,390.170624 846.131775,389.851746 848.907532,387.202423 
	C843.605469,387.202423 838.704224,387.202423 832.886536,387.208344 
M829.877563,412.008392 
	C836.887329,412.008392 843.897095,412.008392 850.906860,412.008392 
	C850.877136,411.476349 850.847412,410.944336 850.817688,410.412292 
	C842.671082,410.412292 834.524414,410.412292 826.377808,410.412292 
	C826.361694,410.763733 826.345581,411.115173 826.329468,411.466614 
	C827.205688,411.647034 828.081848,411.827454 829.877563,412.008392 
z"/>
<path fill="#010101" opacity="1.000000" stroke="none" 
	d="
M562.089661,61.717014 
	C567.569824,61.717014 573.049988,61.717014 578.601379,61.717014 
	C595.488159,112.867981 612.233276,163.589874 629.114685,214.724426 
	C614.095215,214.724426 599.400940,214.724426 584.280945,214.724426 
	C581.422974,205.364243 578.492310,195.765717 575.489014,185.929459 
	C559.352234,185.929459 543.373108,185.862717 527.397583,186.069275 
	C526.247925,186.084137 524.519409,187.894424 524.086365,189.208191 
	C521.285767,197.704849 518.770386,206.295486 516.143127,214.915527 
	C501.228119,214.915527 486.600159,214.915527 471.382294,214.915527 
	C473.441681,208.568558 475.397583,202.458267 477.405518,196.365112 
	C491.695923,153.000473 506.051727,109.657181 520.193848,66.244247 
	C521.364136,62.651737 523.030273,61.515785 526.530273,61.877575 
	C529.002808,62.133156 531.523743,61.920330 534.947510,61.920883 
	C544.611206,61.855770 553.350403,61.786392 562.089661,61.717014 
M535.730835,150.271423 
	C535.418091,151.623413 535.105347,152.975403 534.743896,154.537872 
	C545.444702,154.537872 555.524170,154.537872 566.076599,154.537872 
	C560.937561,137.542282 555.888000,120.842545 550.838440,104.142815 
	C550.452209,104.117149 550.065918,104.091476 549.679688,104.065811 
	C545.094177,119.197571 540.508667,134.329330 535.730835,150.271423 
z"/>
<path fill="#020202" opacity="1.000000" stroke="none" 
	d="
M26.498108,166.999695 
	C26.498131,131.861801 26.498131,97.223915 26.498131,62.256699 
	C40.346916,62.256699 53.905151,62.256699 67.953995,62.256699 
	C67.953995,81.850342 67.953995,101.574570 67.953995,121.561615 
	C86.497887,121.561615 104.554138,121.561615 122.948700,121.561615 
	C122.948700,101.783363 122.948700,82.184837 122.948700,62.257584 
	C136.983871,62.257584 150.684555,62.257584 164.610962,62.257584 
	C164.610962,113.125305 164.610962,163.856812 164.610962,214.830933 
	C150.832382,214.830933 137.242081,214.830933 123.158546,214.830933 
	C123.158546,195.101898 123.158546,175.373581 123.158546,155.410706 
	C104.734718,155.410706 86.800179,155.410706 68.346222,155.410706 
	C68.346222,175.076019 68.346222,194.790604 68.346222,214.787521 
	C54.248821,214.787521 40.665375,214.787521 26.498087,214.787521 
	C26.498087,199.050110 26.498087,183.274918 26.498108,166.999695 
M151.349182,212.461777 
	C153.488464,212.461777 155.627747,212.461777 159.352783,212.461777 
	C156.661621,206.102386 154.956635,200.317047 151.928848,195.335739 
	C147.535645,188.108063 148.220566,180.435623 147.943863,172.677399 
	C150.069351,171.996078 151.952911,171.392319 154.175888,170.679733 
	C146.649323,164.957932 149.688736,158.551620 151.947113,152.521454 
	C149.810394,152.109985 146.618073,152.228851 146.289536,151.316498 
	C143.543594,143.690796 142.756180,149.788467 141.391327,151.875885 
	C139.634979,152.015945 137.878616,152.156006 136.095551,152.298203 
	C138.247391,158.767349 141.519897,165.247192 133.645325,170.732162 
	C136.110535,171.483856 138.066116,172.080170 139.850449,172.624252 
	C140.986191,183.490860 138.596008,193.160339 133.274353,202.247070 
	C131.557571,205.178467 130.495026,208.493027 128.774460,212.459290 
	C137.083328,212.459290 143.732513,212.459290 151.349182,212.461777 
z"/>
<path fill="#020202" opacity="1.000000" stroke="none" 
	d="
M1224.889160,396.792419 
	C1215.788452,409.335297 1203.093872,414.868408 1188.692993,417.255646 
	C1169.272339,420.475037 1150.143433,419.686523 1131.902832,411.645660 
	C1114.286987,403.880310 1102.359375,386.288605 1104.227295,363.394135 
	C1116.985107,363.394135 1129.764038,363.394135 1142.856812,363.394135 
	C1143.986572,373.206055 1148.380615,380.651733 1158.604858,383.357849 
	C1166.178833,385.362427 1173.763428,385.613922 1181.163940,382.700073 
	C1185.782349,380.881622 1189.182495,377.659088 1189.399414,372.411072 
	C1189.620117,367.071869 1186.464233,363.379791 1181.705566,361.899139 
	C1172.218628,358.947266 1162.465820,356.853119 1152.965454,353.939606 
	C1144.588989,351.370789 1136.031860,348.935150 1128.205688,345.108917 
	C1100.095459,331.365723 1103.951050,295.282074 1119.014282,280.365540 
	C1129.423950,270.057312 1141.918457,264.575439 1156.140015,262.715393 
	C1172.584717,260.564575 1188.753784,261.454895 1203.888428,269.095337 
	C1220.578979,277.521240 1231.026367,294.896210 1229.557861,311.394135 
	C1229.128052,311.526031 1228.666382,311.790863 1228.204102,311.791687 
	C1215.711548,311.814148 1203.218994,311.809601 1190.772827,311.809601 
	C1185.685547,297.314087 1172.769653,291.759918 1158.277344,297.707855 
	C1154.105713,299.420013 1151.420044,302.251770 1150.945312,306.922058 
	C1150.434937,311.940369 1152.773560,315.780182 1157.133667,317.244293 
	C1166.062256,320.242462 1175.319214,322.246124 1184.336792,325.000122 
	C1192.087280,327.367157 1200.063599,329.448578 1207.295288,332.977722 
	C1231.721802,344.898102 1239.464722,373.351288 1224.889160,396.792419 
z"/>
<path fill="#020202" opacity="1.000000" stroke="none" 
	d="
M1336.164307,265.725281 
	C1358.380371,273.971741 1371.759766,292.330414 1369.686157,311.616882 
	C1356.773438,311.616882 1343.836060,311.616882 1330.918091,311.616882 
	C1327.888672,295.261810 1312.392822,293.377838 1298.424805,297.890930 
	C1293.881836,299.358734 1291.392456,302.798309 1291.186401,307.648163 
	C1290.983765,312.417603 1293.515991,315.950012 1297.641113,317.396057 
	C1305.130127,320.021210 1312.822632,322.168396 1320.558105,323.963318 
	C1331.436279,326.487518 1342.219238,329.104614 1351.842041,335.089020 
	C1366.328735,344.098389 1372.817505,357.242401 1372.184326,374.149506 
	C1371.570557,390.539093 1364.128052,402.733612 1349.674683,410.401184 
	C1334.113770,418.656342 1317.278687,419.851227 1300.122437,418.431030 
	C1285.479492,417.218964 1271.515015,413.838928 1260.099487,403.816650 
	C1247.960449,393.159088 1244.001465,379.204071 1243.982910,363.381805 
	C1257.183105,363.381805 1269.967651,363.381805 1282.785400,363.381805 
	C1282.951294,363.608398 1283.256836,363.849518 1283.326538,364.145935 
	C1287.491577,381.895660 1305.039917,390.283081 1321.908203,382.564758 
	C1326.455688,380.483978 1329.688965,377.245911 1329.792236,372.005859 
	C1329.894409,366.816284 1326.583984,363.374664 1322.141602,361.960663 
	C1312.671753,358.946259 1302.925781,356.810852 1293.399170,353.960114 
	C1285.477783,351.589722 1277.262573,349.593170 1269.952881,345.897552 
	C1245.646851,333.608826 1240.053589,302.634979 1257.987915,281.995056 
	C1269.128418,269.173737 1283.923828,263.751526 1300.256958,262.197449 
	C1312.236938,261.057556 1324.222412,261.599304 1336.164307,265.725281 
z"/>
<path fill="#010101" opacity="1.000000" stroke="none" 
	d="
M337.139252,174.118195 
	C343.906982,163.030930 350.431549,152.218018 357.182434,141.548279 
	C358.637695,139.248215 358.591156,137.704880 357.200867,135.386856 
	C343.526245,112.586884 329.997864,89.699173 316.431702,66.834167 
	C315.605530,65.441696 314.810913,64.030533 313.599854,61.931732 
	C329.000031,61.931732 343.729218,61.848175 358.453400,62.081696 
	C359.705353,62.101547 361.294373,64.023712 362.099579,65.423050 
	C369.057800,77.515198 375.868774,89.692039 382.733398,101.838112 
	C383.613647,103.395554 384.550018,104.921280 385.974884,107.332314 
	C389.962219,100.390602 393.563934,94.144600 397.141846,87.885010 
	C401.506714,80.248581 405.771667,72.552986 410.280457,65.002792 
	C411.072693,63.676105 412.838013,62.079510 414.175201,62.059948 
	C428.621643,61.848587 443.072327,61.928043 458.283783,61.928043 
	C451.449951,73.437439 444.975128,84.388268 438.454681,95.311874 
	C430.534485,108.580460 422.657959,121.876549 414.565613,135.039673 
	C412.918030,137.719635 413.119019,139.536148 414.744537,142.128311 
	C428.960907,164.798248 443.013092,187.571136 457.112976,210.314117 
	C457.961273,211.682434 458.800446,213.056442 460.038879,215.070129 
	C444.383911,215.070129 429.458862,215.148544 414.538086,214.931168 
	C413.251465,214.912430 411.575500,213.179565 410.787048,211.830078 
	C403.412628,199.208252 396.198517,186.492828 388.919556,173.815079 
	C388.117035,172.417328 387.199158,171.085831 385.833588,168.933746 
	C380.638336,177.950150 375.793823,186.354080 370.953217,194.760284 
	C368.383545,199.222794 365.395447,203.505493 363.365906,208.201965 
	C361.004791,213.665863 357.678986,215.528336 351.599182,215.250320 
	C338.802368,214.665085 325.960175,215.072449 312.093353,215.072449 
	C320.622986,201.145813 328.800049,187.794800 337.139252,174.118195 
z"/>
<path fill="#010101" opacity="1.000000" stroke="none" 
	d="
M657.758240,361.186676 
	C654.336060,340.180084 654.784302,319.942444 664.036316,300.744843 
	C673.084229,281.970612 687.932312,269.872040 708.037292,264.647308 
	C728.003906,259.458496 747.679260,260.546173 766.338257,269.896210 
	C787.059082,280.279510 797.093201,297.870239 799.458801,320.825897 
	C785.319763,320.825897 771.442505,320.825897 757.574219,320.825897 
	C754.371521,306.362427 746.938721,299.069641 734.423706,298.070892 
	C719.258484,296.860657 707.575073,303.395874 702.732727,316.923920 
	C696.753967,333.626740 696.354614,350.658203 703.912231,366.985138 
	C710.981445,382.257416 731.813049,387.864838 746.261230,379.108521 
	C751.920532,375.678680 754.554199,371.721954 757.553101,362.052826 
	C771.282715,362.052826 785.064880,362.052826 798.833740,362.052826 
	C800.373291,388.247131 772.408325,414.990417 739.785156,418.755737 
	C698.611206,423.507965 664.578125,399.772034 657.758240,361.186676 
z"/>
<path fill="#010101" opacity="1.000000" stroke="none" 
	d="
M226.197586,155.226196 
	C226.197586,163.861420 226.197586,172.496658 226.197586,181.613937 
	C248.998230,181.613937 271.583557,181.613937 294.431213,181.613937 
	C294.431213,192.856339 294.431213,203.617737 294.431213,214.726685 
	C258.010773,214.726685 221.608963,214.726685 184.853210,214.726685 
	C184.853210,163.985992 184.853210,113.118698 184.853210,62.089226 
	C221.447678,62.089226 257.908661,62.089226 294.685150,62.089226 
	C294.685150,72.971039 294.685150,83.868286 294.685150,95.266907 
	C271.979462,95.266907 249.262390,95.266907 225.835220,95.266907 
	C225.835220,104.367577 225.835220,112.977791 225.277405,121.684479 
	C224.563492,121.653664 224.407425,121.526375 224.360840,121.010880 
	C225.886398,116.547493 225.235550,112.616112 221.348404,110.795731 
	C218.901077,109.649628 214.711151,109.346565 212.786102,110.729645 
	C210.632034,112.277260 209.166077,116.157257 209.166245,119.022163 
	C209.166550,123.917450 216.246414,128.275711 222.816422,123.776245 
	C223.212860,124.182625 223.374786,124.341881 223.536713,124.501144 
	C220.260132,125.715500 216.983551,126.929855 213.294800,128.296967 
	C213.866837,128.715286 214.649826,129.779449 215.381180,129.745087 
	C221.348633,129.464630 221.746033,133.991348 221.561386,137.767273 
	C221.385696,141.360382 219.454285,144.836716 218.659073,148.444702 
	C218.310471,150.026337 218.244324,152.571075 219.159714,153.317535 
	C220.504684,154.414322 222.844467,154.291168 225.299957,154.744019 
	C225.958878,154.942261 226.078232,155.084229 226.197586,155.226196 
M213.282639,88.476379 
	C212.629272,88.368469 211.970169,88.140549 211.323456,88.171516 
	C205.872025,88.432526 202.493195,92.025978 202.869476,97.105209 
	C203.207794,101.671974 207.176743,104.991508 211.736740,104.521576 
	C216.699768,104.010124 219.646683,99.909691 218.967941,94.530159 
	C218.862564,93.695038 218.979630,92.831848 219.699051,92.084396 
	C220.333984,94.439926 220.968933,96.795464 221.603882,99.151001 
	C222.975525,97.905243 223.020004,96.656494 223.431137,95.543144 
	C223.938538,94.169144 224.413345,92.298096 225.489395,91.702293 
	C230.382278,88.993149 235.473022,89.349777 240.722275,91.097282 
	C242.551331,91.706184 245.638306,91.739464 246.671677,90.642395 
	C247.723267,89.525970 247.780228,86.156784 246.838028,84.705269 
	C242.681808,78.302231 238.141373,72.130203 233.418427,66.127586 
	C232.367538,64.791931 229.772156,63.533535 228.313217,63.905930 
	C225.690109,64.575485 224.970535,66.666740 224.884033,69.970016 
	C224.767105,74.435600 222.743240,79.010826 220.837997,83.222557 
	C219.128143,87.002373 215.762741,84.493446 213.056015,84.261215 
	C212.814804,84.240517 212.539673,84.615311 211.941910,85.055733 
	C212.633682,86.056404 213.325211,87.056717 213.282639,88.476379 
z"/>
<path fill="#020202" opacity="1.000000" stroke="none" 
	d="
M1003.235107,373.028717 
	C1002.655151,373.463623 1002.075256,373.898499 1001.711670,374.682007 
	C1001.928040,375.030579 1001.950134,374.977783 1001.618530,374.744995 
	C1000.762085,377.032349 1000.237183,379.552429 999.718445,382.408997 
	C1000.501709,383.763977 1001.278809,384.782471 1002.285645,386.098816 
	C1007.681702,388.782837 1011.521240,388.259766 1013.869629,384.402191 
	C1016.172729,380.619110 1016.167175,376.865692 1012.207703,373.530212 
	C1012.117737,372.534607 1012.173523,371.819092 1012.613159,370.967346 
	C1013.343140,369.054718 1013.806641,367.287292 1013.945007,365.494781 
	C1013.976135,365.092682 1012.869568,364.602753 1012.286743,364.153259 
	C1012.004211,364.766266 1011.721680,365.379272 1011.447754,366.031372 
	C1011.456299,366.070496 1011.536072,366.078613 1011.895386,365.730896 
	C1010.189026,363.577850 1008.123352,361.772552 1006.032471,359.980469 
	C1006.007324,359.993713 1006.043945,359.950043 1006.376831,359.583923 
	C1005.820923,358.795410 1004.932068,358.373016 1004.021729,357.975067 
	C1004.000244,357.999481 1004.057922,357.969299 1004.483582,357.751709 
	C1004.484497,353.380737 1004.059814,349.227325 1003.606445,345.048767 
	C1003.577820,345.023651 1003.531006,345.083679 1003.801025,345.577881 
	C1005.057129,345.447571 1006.043274,344.823090 1007.029419,344.198608 
	C1006.526245,343.781586 1006.023132,343.364563 1005.406677,342.737671 
	C1005.212036,342.060760 1005.130737,341.593750 1005.192505,340.773499 
	C1008.253784,335.165863 1007.376892,330.516266 1002.924683,328.175690 
	C999.267151,326.252838 995.828125,326.838104 993.082947,329.844574 
	C989.800049,333.440033 990.292664,337.288025 992.849548,341.262085 
	C992.495178,341.708710 992.230103,341.895264 991.530396,342.022583 
	C990.933167,342.839722 990.735107,343.665894 990.537109,344.492065 
	C991.673950,344.686768 992.810852,344.881470 993.907104,345.096008 
	C993.866455,345.115814 993.863403,345.206146 993.562134,345.442322 
	C993.162659,348.767548 993.064453,351.856628 992.998535,354.939392 
	C993.030823,354.933136 992.977600,354.894806 992.977600,354.894775 
	C989.387329,357.664032 985.393555,360.067291 982.394897,363.373199 
	C981.099670,364.801117 981.860901,368.094299 981.590637,371.915680 
	C978.063232,374.115936 977.230774,378.807220 979.413025,384.395874 
	C978.996826,384.458984 978.580566,384.522125 978.164368,384.585236 
	C977.542175,383.121643 976.379822,381.659210 976.376587,380.194244 
	C976.292603,341.887390 976.328064,303.580261 976.360718,265.273193 
	C976.360962,264.980530 976.606201,264.688049 976.841187,264.162598 
	C1013.307556,264.162598 1049.867554,264.162598 1086.679932,264.162598 
	C1086.679932,275.151794 1086.679932,286.039734 1086.679932,297.262085 
	C1063.841675,297.262085 1041.247681,297.262085 1018.329773,297.262085 
	C1018.329773,306.144989 1018.329773,314.702148 1018.329773,323.665405 
	C1039.036011,323.665405 1059.771362,323.665405 1080.789429,323.665405 
	C1080.789429,334.951050 1080.789429,345.837799 1080.789429,357.139740 
	C1059.964600,357.139740 1039.236572,357.139740 1018.003052,357.139740 
	C1018.003052,364.485107 1018.007812,371.428070 1018.001648,378.371002 
	C1017.995422,385.288116 1012.209290,390.302917 1005.254578,389.471466 
	C1004.277344,389.354614 1003.274109,389.455292 1000.823853,389.455292 
	C1002.594055,390.903992 1003.146545,391.751221 1003.734436,391.776489 
	C1010.016113,392.046417 1009.918640,396.648071 1009.141541,400.675507 
	C1008.458252,404.216644 1006.204773,407.428314 1004.955933,410.897522 
	C1004.295105,412.733337 1004.296997,414.807709 1003.954163,417.074738 
	C1000.892944,417.074738 997.403442,417.082001 993.913940,417.069183 
	C993.123474,417.066254 992.333252,416.993469 991.152893,416.932770 
	C993.611572,413.340973 992.820923,411.243164 990.101929,407.853699 
	C987.339233,404.409912 986.832275,398.746643 986.523682,393.978546 
	C986.423096,392.424072 990.050232,390.628326 992.358276,388.604645 
	C988.151245,388.254517 984.202576,387.925903 980.253906,387.597260 
	C980.287781,387.256897 980.321716,386.916504 980.355652,386.576111 
	C983.770325,386.310028 987.185059,386.043945 991.112061,385.392120 
	C992.060364,384.342163 992.496277,383.677979 993.265015,382.780487 
	C993.817444,380.775055 994.511353,378.883759 994.105469,377.268738 
	C993.784241,375.990570 992.113281,375.051605 991.030762,373.942078 
	C991.019897,373.922211 991.037659,373.878082 991.037659,373.878082 
	C990.997498,373.003448 990.957275,372.128845 990.905212,370.995911 
	C994.523193,371.189575 998.428406,371.398621 1002.838379,371.922791 
	C1003.307129,372.501495 1003.271118,372.765106 1003.235107,373.028717 
z"/>
<path fill="#010101" opacity="1.000000" stroke="none" 
	d="
M1068.999268,417.071411 
	C1050.361938,417.071411 1032.224731,417.071411 1014.087402,417.071411 
	C1014.005249,416.818909 1013.923096,416.566406 1013.840942,416.313904 
	C1019.513123,413.863281 1025.312012,411.658325 1030.790405,408.831879 
	C1032.773193,407.808899 1035.227661,405.332581 1035.280151,403.458160 
	C1035.372192,400.171448 1032.515503,399.999420 1029.295776,399.545837 
	C1024.296021,398.841522 1019.201477,396.278015 1017.244202,391.049103 
	C1016.477600,389.001038 1018.045288,386.079163 1018.530945,383.649719 
	C1041.482544,383.649719 1063.603760,383.649719 1086.108887,383.649719 
	C1086.108887,394.684906 1086.108887,405.591827 1086.108887,417.071411 
	C1080.736450,417.071411 1075.117920,417.071411 1068.999268,417.071411 
z"/>
<path fill="#1A1A1A" opacity="1.000000" stroke="none" 
	d="
M983.209167,111.707535 
	C987.386353,118.932884 991.316223,125.882713 995.484680,132.686356 
	C996.960754,135.095520 997.034302,136.901566 995.553467,139.444275 
	C979.909363,166.306808 964.456787,193.280991 948.777161,220.122589 
	C947.919861,221.590332 945.524475,223.007538 943.837097,223.016800 
	C912.513367,223.188797 881.188293,223.095703 849.864136,223.224106 
	C847.052490,223.235626 845.753906,222.133942 844.486206,219.928589 
	C829.076904,193.121979 813.623779,166.340408 798.087585,139.607224 
	C796.686096,137.195663 796.502380,135.381760 797.977356,132.848907 
	C813.623474,105.981407 829.160156,79.049889 844.621765,52.075726 
	C845.946594,49.764477 847.357361,48.932045 850.049866,48.941433 
	C881.040894,49.049484 912.032654,49.059074 943.023560,48.934940 
	C946.119873,48.922539 947.713257,49.952980 949.215271,52.591499 
	C960.400146,72.240074 971.754639,91.792107 983.209167,111.707535 
M834.934692,74.448578 
	C823.690186,93.884598 812.492737,113.348228 801.142639,132.722397 
	C799.687073,135.206970 799.705322,137.038727 801.137207,139.501373 
	C816.180359,165.374161 831.055603,191.344849 846.196594,217.159836 
	C847.187378,218.848984 849.966797,220.452423 851.925598,220.466095 
	C881.755371,220.674591 911.587158,220.564148 941.417908,220.681305 
	C944.519531,220.693481 946.151794,219.615189 947.656433,216.982788 
	C962.428345,191.139481 977.276978,165.339340 992.278625,139.628967 
	C993.871704,136.898666 993.705139,135.086105 992.183960,132.474167 
	C977.205872,106.756302 962.337524,80.974113 947.562805,55.138859 
	C946.142029,52.654537 944.622742,51.703518 941.744202,51.713539 
	C911.746704,51.817959 881.748474,51.826771 851.751099,51.701298 
	C848.792908,51.688927 847.303894,52.718067 845.954773,55.196842 
	C842.537231,61.476021 838.831787,67.598503 834.934692,74.448578 
z"/>
<path fill="#010101" opacity="1.000000" stroke="none" 
	d="
M225.667084,154.581940 
	C231.909836,150.522812 238.435516,146.848770 244.661148,142.722031 
	C246.183975,141.712601 247.677200,139.115585 247.491531,137.435547 
	C247.217148,134.952789 245.273239,133.677246 242.026245,133.916962 
	C236.695862,134.310486 231.935623,132.171906 228.545288,127.849571 
	C227.790756,126.887619 227.235992,124.878586 227.738510,124.041847 
	C228.396317,122.946541 230.191620,121.932404 231.504883,121.923218 
	C250.488174,121.790497 269.472687,121.832306 288.812347,121.832306 
	C288.812347,132.840256 288.812347,143.720993 288.812347,155.212051 
	C268.294556,155.212051 247.701874,155.212051 226.653381,155.219116 
	C226.078232,155.084229 225.958878,154.942261 225.667084,154.581940 
z"/>
<path fill="#0B0B0B" opacity="1.000000" stroke="none" 
	d="
M540.767944,26.749327 
	C543.946411,23.308760 546.859497,20.112425 549.816345,16.868073 
	C555.740540,19.046722 563.099121,21.362762 564.124023,30.063660 
	C564.638977,34.435089 564.084595,38.932465 563.052612,43.389706 
	C561.284302,36.980671 564.138245,29.719774 557.834961,24.378513 
	C562.920349,33.460339 558.466125,42.327969 557.668945,51.555351 
	C551.647827,51.555351 545.425110,51.555351 539.133423,51.555351 
	C537.317261,43.295509 543.636597,39.631420 547.795166,33.864666 
	C546.246826,34.323360 544.724731,34.973663 543.143188,35.190609 
	C541.304688,35.442814 538.836914,36.069935 537.676270,35.182308 
	C535.753662,33.711880 535.277222,31.253904 537.983154,29.405415 
	C538.930176,28.758465 539.668762,27.806328 540.767944,26.749327 
M555.995667,23.339098 
	C555.925415,22.588882 555.855103,21.838669 555.784790,21.088459 
	C555.206665,21.238079 554.628540,21.387699 554.050415,21.537315 
	C554.382446,22.038223 554.714478,22.539131 555.995667,23.339098 
z"/>
<path fill="#0E0E0E" opacity="1.000000" stroke="none" 
	d="
M1011.536072,366.078613 
	C1011.536072,366.078613 1011.456299,366.070496 1011.636108,366.333954 
	C1010.785889,367.498718 1009.755920,368.399994 1008.592712,369.239410 
	C1008.267029,369.196014 1008.075928,369.223602 1007.886169,369.260315 
	C1001.263123,368.911102 994.632141,368.661682 988.023132,368.136017 
	C986.542969,368.018280 985.139648,366.932922 983.700989,366.293030 
	C985.185608,365.754944 986.646667,365.130890 988.164795,364.715027 
	C988.924133,364.506989 989.787537,364.678802 989.764038,364.678802 
	C991.286072,361.187805 992.575867,358.229614 993.421631,355.083130 
	C992.977600,354.894806 993.030823,354.933136 993.264465,355.367371 
	C994.450500,353.937592 995.288574,352.001862 996.397644,350.236298 
	C997.076050,349.156281 998.170715,348.337738 998.583496,347.912109 
	C1000.722717,351.842102 1002.390320,354.905701 1004.057922,357.969299 
	C1004.057922,357.969299 1004.000244,357.999481 1003.701904,358.342804 
	C1004.283691,359.107422 1005.163818,359.528748 1006.043945,359.950043 
	C1006.043945,359.950043 1006.007324,359.993713 1005.615601,360.159882 
	C1006.032654,363.472504 1003.868835,362.777435 1002.148254,362.741821 
	C1000.060425,362.698578 997.971069,362.731567 995.882324,362.731567 
	C995.902649,363.346771 995.922913,363.961975 995.943176,364.577209 
	C1001.140808,365.077667 1006.338440,365.578125 1011.536072,366.078613 
z"/>
<path fill="#0E0E0E" opacity="1.000000" stroke="none" 
	d="
M1022.403931,405.672760 
	C1025.205811,404.451935 1027.600708,403.289978 1030.097290,402.420013 
	C1030.792114,402.177917 1031.788208,402.800018 1032.645996,403.025665 
	C1032.263306,403.954559 1032.125732,405.430084 1031.460327,405.728424 
	C1024.206665,408.980865 1016.890320,412.098022 1009.523682,415.086060 
	C1008.844849,415.361450 1007.702576,414.494476 1006.775513,414.157898 
	C1007.205322,413.397217 1007.454712,412.370148 1008.102539,411.931335 
	C1009.449890,411.018524 1011.008240,410.417328 1012.124756,409.864075 
	C1011.711548,408.084473 1011.022827,406.580719 1011.082581,405.107269 
	C1011.276733,400.316193 1011.744568,395.536255 1012.114807,390.649994 
	C1016.779663,394.840057 1020.636414,398.304260 1024.483154,401.759491 
	C1022.052063,403.003235 1019.172546,404.476410 1016.293030,405.949554 
	C1016.496521,406.459961 1016.700073,406.970367 1016.903564,407.480774 
	C1018.614197,406.934509 1020.324768,406.388245 1022.403931,405.672760 
z"/>
<path fill="#0E0E0E" opacity="1.000000" stroke="none" 
	d="
M224.019196,140.750275 
	C223.626602,137.226074 223.106537,134.147583 222.832535,131.047348 
	C222.725754,129.839462 223.173264,128.582611 223.328995,127.596863 
	C228.282883,131.034653 232.537949,133.987488 236.814117,136.954971 
	C234.565308,138.439178 231.890472,140.204590 229.215622,141.969986 
	C229.510849,142.510757 229.806061,143.051514 230.101288,143.592285 
	C232.764313,142.185913 235.361389,140.629501 238.111252,139.420639 
	C240.310944,138.453629 242.696396,137.909195 244.999405,137.177231 
	C245.953033,141.463257 241.813736,141.163315 239.851791,142.505554 
	C235.198105,145.689316 230.237213,148.441666 225.286591,151.161087 
	C224.091400,151.817612 222.453918,151.668945 221.019821,151.890564 
	C221.853073,150.588257 222.576691,149.194290 223.560349,148.017731 
	C224.157898,147.303009 225.157120,146.924088 225.526428,146.685135 
	C224.936768,144.574997 224.463425,142.881134 224.019196,140.750275 
z"/>
<path fill="#060606" opacity="1.000000" stroke="none" 
	d="
M535.189514,60.740978 
	C535.667419,56.318161 537.654663,53.718529 542.581177,53.976524 
	C546.859985,54.200596 551.164368,54.147949 555.448975,53.988998 
	C560.095825,53.816608 562.010681,56.265789 561.729797,60.834892 
	C552.478149,61.014309 543.833862,60.877644 535.189514,60.740978 
z"/>
<path fill="#171717" opacity="1.000000" stroke="none" 
	d="
M980.318359,391.311646 
	C981.669189,390.976349 982.844421,390.976349 983.024414,390.976349 
	C983.740784,396.500549 984.383606,401.458038 985.070740,406.757233 
	C985.508240,406.489288 985.194397,406.838745 984.991638,406.783173 
	C974.619934,403.939301 974.620972,403.935577 980.318359,391.311646 
z"/>
<path fill="#0B0B0B" opacity="1.000000" stroke="none" 
	d="
M1001.908936,375.009155 
	C1003.954773,374.785095 1006.019653,374.582458 1008.685120,374.618958 
	C1009.787537,375.044189 1010.289368,375.230286 1010.958374,375.713562 
	C1013.658936,378.687164 1012.992126,381.360077 1010.850952,384.091431 
	C1010.348022,384.415009 1010.110962,384.678802 1009.565369,384.962372 
	C1007.195129,384.578705 1005.133545,384.175262 1003.056519,383.552979 
	C1002.676147,382.885193 1002.311157,382.436310 1001.940552,381.582581 
	C1001.940002,379.111053 1001.945068,377.044434 1001.950134,374.977783 
	C1001.950134,374.977783 1001.928040,375.030579 1001.908936,375.009155 
z"/>
<path fill="#0B0B0B" opacity="1.000000" stroke="none" 
	d="
M990.154724,383.045319 
	C987.299988,384.610413 984.115540,385.227570 982.299194,382.160065 
	C981.290527,380.456360 981.223816,377.188354 982.222778,375.515289 
	C984.203186,372.198639 987.547485,373.090424 990.792603,374.251404 
	C991.037659,373.878082 991.019897,373.922211 990.692627,374.213562 
	C990.857178,376.573639 991.348999,378.642395 991.587646,380.862793 
	C990.941284,381.691437 990.548035,382.368378 990.154724,383.045319 
z"/>
<path fill="#1A1A1A" opacity="1.000000" stroke="none" 
	d="
M990.025818,413.537842 
	C983.552917,414.520416 976.754700,411.296783 976.437317,406.783936 
	C980.948792,408.261292 985.223572,409.605347 989.435608,411.123566 
	C989.874939,411.281952 989.942383,412.472076 990.025818,413.537842 
z"/>
<path fill="#C0C0C0" opacity="1.000000" stroke="none" 
	d="
M535.069763,60.989426 
	C543.833862,60.877644 552.478149,61.014309 561.595520,61.142120 
	C562.068542,61.133266 562.224792,61.419868 562.157227,61.568443 
	C553.350403,61.786392 544.611206,61.855770 535.403442,61.857208 
	C534.940002,61.605473 534.945007,61.421673 535.069763,60.989426 
z"/>
<path fill="#E8E8E8" opacity="1.000000" stroke="none" 
	d="
M1010.791199,375.416351 
	C1010.289368,375.230286 1009.787537,375.044189 1009.091797,374.672516 
	C1008.413696,372.983643 1007.929504,371.480377 1007.665771,369.618713 
	C1008.075928,369.223602 1008.267029,369.196014 1008.791138,369.612915 
	C1010.158264,370.400055 1011.193787,370.751801 1012.229248,371.103546 
	C1012.173523,371.819092 1012.117737,372.534607 1011.878540,373.724854 
	C1011.393738,374.605133 1011.092468,375.010742 1010.791199,375.416351 
z"/>
<path fill="#E8E8E8" opacity="1.000000" stroke="none" 
	d="
M990.382690,383.240967 
	C990.548035,382.368378 990.941284,381.691437 991.797791,381.468201 
	C992.484741,382.285889 992.708496,382.649841 992.932190,383.013794 
	C992.496277,383.677979 992.060364,384.342163 991.327026,385.082581 
	C990.889954,384.584778 990.750305,384.010681 990.382690,383.240967 
z"/>
<path fill="#E8E8E8" opacity="1.000000" stroke="none" 
	d="
M1003.517334,373.020905 
	C1003.271118,372.765106 1003.307129,372.501495 1003.251587,371.849426 
	C1003.684448,371.514771 1004.208923,371.568542 1004.733337,371.622314 
	C1004.422058,372.085907 1004.110779,372.549500 1003.517334,373.020905 
z"/>
<path fill="#010101" opacity="1.000000" stroke="none" 
	d="
M224.951416,121.974648 
	C225.074112,122.492706 224.964996,122.817078 224.399902,123.044510 
	C223.787430,122.789955 223.630966,122.632355 223.574936,122.275772 
	C223.835785,121.824043 224.027786,121.598145 224.251358,121.399078 
	C224.407425,121.526375 224.563492,121.653664 224.951416,121.974648 
z"/>
<path fill="#010101" opacity="1.000000" stroke="none" 
	d="
M224.177475,123.185081 
	C224.355087,123.753540 224.198593,124.026917 223.739136,124.371948 
	C223.374786,124.341881 223.212860,124.182625 222.928360,123.571564 
	C222.988297,122.862885 223.211197,122.647888 223.474503,122.474762 
	C223.630966,122.632355 223.787430,122.789955 224.177475,123.185081 
z"/>
<path fill="#F8F8F8" opacity="1.000000" stroke="none" 
	d="
M1034.991943,192.775131 
	C1037.054443,197.021027 1039.148438,200.816071 1041.053589,204.703735 
	C1042.071045,206.779877 1042.762451,209.015854 1043.836060,211.786224 
	C1034.854980,211.786224 1026.664551,211.786224 1017.101868,211.786224 
	C1019.490906,207.227890 1021.987671,203.289719 1023.671753,199.030243 
	C1025.547852,194.285095 1026.684570,189.247665 1028.212402,184.104263 
	C1025.362915,183.295807 1023.851746,182.867081 1021.360352,182.160233 
	C1026.706543,179.403076 1025.801270,176.259338 1024.161255,172.268829 
	C1023.276306,170.115509 1024.292969,166.941620 1025.059570,164.412415 
	C1025.910278,161.605911 1027.256104,158.886597 1028.806152,156.390106 
	C1029.328247,155.549408 1031.135986,155.507004 1032.693115,154.987320 
	C1032.693115,158.010742 1032.693115,160.215729 1032.693115,162.440094 
	C1036.847778,162.636398 1039.489624,167.823776 1036.981201,172.589645 
	C1034.926758,176.492828 1034.637329,179.471695 1039.840454,181.921844 
	C1037.497925,182.760315 1035.907837,183.329437 1033.875122,184.057007 
	C1034.233765,186.841858 1034.589355,189.602341 1034.991943,192.775131 
z"/>
<path fill="#F0F0F0" opacity="1.000000" stroke="none" 
	d="
M832.472595,403.725983 
	C831.420166,401.742615 830.584290,399.803131 830.292786,397.785004 
	C829.993530,395.713104 830.226379,393.564362 830.226379,391.216217 
	C835.888245,391.216217 841.118347,391.216217 846.621826,391.216217 
	C846.621826,395.208466 846.621826,399.118927 846.621826,403.735321 
	C842.092773,403.735321 837.510437,403.735321 832.472595,403.725983 
z"/>
<path fill="#E4E4E4" opacity="1.000000" stroke="none" 
	d="
M847.694336,382.695648 
	C848.849976,381.927490 849.893433,381.561951 850.936890,381.196411 
	C851.192200,382.544495 851.447510,383.892578 851.773987,385.616394 
	C842.929749,385.616394 834.690979,385.616394 825.988403,385.616394 
	C825.856812,384.451569 825.700378,383.066650 825.455627,380.899506 
	C827.052673,381.217041 828.717041,381.057068 829.163940,381.718994 
	C831.511230,385.195801 833.476746,384.690216 836.168091,381.999451 
	C837.050781,381.116943 840.570679,381.114044 840.744934,381.554749 
	C842.379700,385.689789 845.050903,383.858582 847.694336,382.695648 
z"/>
<path fill="#C0C0C0" opacity="1.000000" stroke="none" 
	d="
M845.846558,413.641907 
	C848.575500,413.641968 850.826721,413.641968 853.077881,413.641968 
	C853.067749,414.111115 853.057556,414.580292 853.047424,415.049438 
	C843.374451,415.049438 833.701538,415.049438 824.028564,415.049438 
	C824.006287,414.580261 823.983948,414.111053 823.961670,413.641876 
	C831.097351,413.641876 838.233093,413.641876 845.846558,413.641907 
z"/>
<path fill="#E4E4E4" opacity="1.000000" stroke="none" 
	d="
M847.205078,405.499664 
	C848.085327,406.269287 848.558838,406.872406 849.329346,407.853638 
	C841.998962,407.853638 835.226501,407.853638 828.454041,407.853638 
	C834.078979,403.471924 840.650513,405.938782 847.205078,405.499664 
z"/>
<path fill="#C0C0C0" opacity="1.000000" stroke="none" 
	d="
M833.344727,387.205383 
	C838.704224,387.202423 843.605469,387.202423 848.907532,387.202423 
	C846.131775,389.851746 832.689148,390.170624 827.476868,387.548615 
	C829.909119,387.395630 831.397827,387.301971 833.344727,387.205383 
z"/>
<path fill="#F8F8F8" opacity="1.000000" stroke="none" 
	d="
M829.417847,412.008148 
	C828.081848,411.827454 827.205688,411.647034 826.329468,411.466614 
	C826.345581,411.115173 826.361694,410.763733 826.377808,410.412292 
	C834.524414,410.412292 842.671082,410.412292 850.817688,410.412292 
	C850.847412,410.944336 850.877136,411.476349 850.906860,412.008392 
	C843.897095,412.008392 836.887329,412.008392 829.417847,412.008148 
z"/>
<path fill="#F8F8F8" opacity="1.000000" stroke="none" 
	d="
M535.826965,149.866241 
	C540.508667,134.329330 545.094177,119.197571 549.679688,104.065811 
	C550.065918,104.091476 550.452209,104.117149 550.838440,104.142815 
	C555.888000,120.842545 560.937561,137.542282 566.076599,154.537872 
	C555.524170,154.537872 545.444702,154.537872 534.743896,154.537872 
	C535.105347,152.975403 535.418091,151.623413 535.826965,149.866241 
z"/>
<path fill="#F8F8F8" opacity="1.000000" stroke="none" 
	d="
M150.865448,212.460541 
	C143.732513,212.459290 137.083328,212.459290 128.774460,212.459290 
	C130.495026,208.493027 131.557571,205.178467 133.274353,202.247070 
	C138.596008,193.160339 140.986191,183.490860 139.850449,172.624252 
	C138.066116,172.080170 136.110535,171.483856 133.645325,170.732162 
	C141.519897,165.247192 138.247391,158.767349 136.095551,152.298203 
	C137.878616,152.156006 139.634979,152.015945 141.391251,151.875107 
	C142.756180,149.788467 143.543594,143.690796 146.289536,151.316498 
	C146.618073,152.228851 149.810394,152.109985 151.947113,152.521454 
	C149.688736,158.551620 146.649323,164.957932 154.175888,170.679733 
	C151.952911,171.392319 150.069351,171.996078 147.943863,172.677399 
	C148.220566,180.435623 147.535645,188.108063 151.928848,195.335739 
	C154.956635,200.317047 156.661621,206.102386 159.352783,212.461777 
	C155.627747,212.461777 153.488464,212.461777 150.865448,212.460541 
z"/>
<path fill="#E8E8E8" opacity="1.000000" stroke="none" 
	d="
M214.016739,88.057022 
	C213.325211,87.056717 212.633682,86.056404 211.941910,85.055733 
	C212.539673,84.615311 212.814804,84.240517 213.056015,84.261215 
	C215.762741,84.493446 219.128143,87.002373 220.837997,83.222557 
	C222.743240,79.010826 224.767105,74.435600 224.884033,69.970016 
	C224.970535,66.666740 225.690109,64.575485 228.313217,63.905930 
	C229.772156,63.533535 232.367538,64.791931 233.418427,66.127586 
	C238.141373,72.130203 242.681808,78.302231 246.838028,84.705269 
	C247.780228,86.156784 247.723267,89.525970 246.671677,90.642395 
	C245.638306,91.739464 242.551331,91.706184 240.722275,91.097282 
	C235.473022,89.349777 230.382278,88.993149 225.489395,91.702293 
	C224.413345,92.298096 223.938538,94.169144 223.431137,95.543144 
	C223.020004,96.656494 222.975525,97.905243 221.603882,99.151001 
	C220.968933,96.795464 220.333984,94.439926 219.351013,92.065269 
	C219.002991,92.046143 219.066925,92.032639 219.099594,91.642960 
	C218.738403,91.151138 218.344543,91.049011 217.956589,90.992989 
	C217.962494,91.039101 218.055008,91.048424 218.214142,90.636780 
	C217.900314,90.132507 217.427353,90.039894 216.957870,89.992592 
	C216.961349,90.037903 217.051712,90.047745 217.238815,89.659027 
	C216.940186,89.161278 216.454437,89.052238 215.975891,88.982849 
	C215.983093,89.022507 216.063492,89.016777 216.073059,88.591904 
	C215.371399,88.098557 214.660187,88.030075 213.948334,87.997940 
	C213.947693,88.034271 214.016739,88.057022 214.016739,88.057022 
M221.946686,89.928932 
	C227.648788,88.350372 233.350891,86.771812 239.345749,85.112206 
	C239.657761,85.492020 240.067444,86.255966 240.700439,86.705383 
	C241.967667,87.605064 243.357132,88.332603 244.696121,89.131210 
	C244.298019,87.574173 244.285797,85.754150 243.434921,84.505699 
	C239.791779,79.160309 235.974365,73.927620 232.043686,68.789070 
	C231.191330,67.674797 229.608841,67.119026 228.362640,66.306015 
	C228.652496,67.851845 228.538254,69.647659 229.310089,70.895332 
	C231.391464,74.259903 233.850418,77.390892 236.159531,80.614578 
	C235.606079,81.066551 235.052612,81.518532 234.499161,81.970512 
	C232.446060,79.563652 230.392960,77.156799 228.825348,75.319084 
	C226.083557,79.312561 223.386658,83.122154 220.872681,87.048851 
	C220.550156,87.552612 221.178421,88.665085 221.946686,89.928932 
z"/>
<path fill="#E4E4E4" opacity="1.000000" stroke="none" 
	d="
M218.998413,92.013893 
	C218.979630,92.831848 218.862564,93.695038 218.967941,94.530159 
	C219.646683,99.909691 216.699768,104.010124 211.736740,104.521576 
	C207.176743,104.991508 203.207794,101.671974 202.869476,97.105209 
	C202.493195,92.025978 205.872025,88.432526 211.323456,88.171516 
	C211.970169,88.140549 212.629272,88.368469 213.649689,88.266701 
	C214.016739,88.057022 213.947693,88.034271 213.963684,88.397476 
	C214.674271,88.846039 215.368881,88.931404 216.063492,89.016777 
	C216.063492,89.016777 215.983093,89.022507 215.829895,89.341354 
	C216.135025,89.789383 216.593369,89.918564 217.051712,90.047745 
	C217.051712,90.047745 216.961349,90.037903 216.902466,90.345245 
	C217.247391,90.784531 217.651199,90.916473 218.055008,91.048416 
	C218.055008,91.048424 217.962494,91.039101 217.904724,91.391052 
	C218.253616,91.839546 218.660278,91.936096 219.066925,92.032639 
	C219.066925,92.032639 219.002991,92.046143 218.998413,92.013893 
M206.091156,94.050804 
	C206.768234,96.359520 206.891235,99.157547 208.333405,100.790573 
	C209.177567,101.746429 212.665466,101.562454 213.977432,100.577309 
	C215.314758,99.573112 216.187927,96.862106 215.954483,95.068939 
	C215.370209,90.581207 210.774796,89.847939 206.091156,94.050804 
z"/>
<path fill="#E4E4E4" opacity="1.000000" stroke="none" 
	d="
M223.574936,122.275772 
	C223.211197,122.647888 222.988297,122.862885 222.693848,123.324448 
	C216.246414,128.275711 209.166550,123.917450 209.166245,119.022163 
	C209.166077,116.157257 210.632034,112.277260 212.786102,110.729645 
	C214.711151,109.346565 218.901077,109.649628 221.348404,110.795731 
	C225.235550,112.616112 225.886398,116.547493 224.360840,121.010880 
	C224.027786,121.598145 223.835785,121.824043 223.574936,122.275772 
M217.378387,112.014320 
	C215.570404,113.151741 213.021317,113.880676 212.119186,115.517387 
	C210.566299,118.334785 211.802826,121.542908 214.957565,122.156334 
	C216.991562,122.551826 220.527771,121.426903 221.488342,119.835274 
	C223.439087,116.602997 222.170181,113.461716 217.378387,112.014320 
z"/>
<path fill="#E8E8E8" opacity="1.000000" stroke="none" 
	d="
M992.974182,341.052246 
	C990.292664,337.288025 989.800049,333.440033 993.082947,329.844574 
	C995.828125,326.838104 999.267151,326.252838 1002.924683,328.175690 
	C1007.376892,330.516266 1008.253784,335.165863 1004.856812,340.949493 
	C1000.461975,344.408295 996.677551,343.813385 992.974182,341.052246 
M999.395630,340.810028 
	C1000.553528,340.234192 1002.459229,339.889221 1002.722290,339.037140 
	C1003.384766,336.891571 1004.309937,333.619934 1003.272827,332.459869 
	C1001.952759,330.983337 998.414490,330.167786 996.567078,330.905914 
	C995.106812,331.489380 993.939392,334.947754 994.183289,336.940765 
	C994.361328,338.395660 997.046631,339.543732 999.395630,340.810028 
z"/>
<path fill="#FEFEFE" opacity="1.000000" stroke="none" 
	d="
M1004.483582,357.751709 
	C1002.390320,354.905701 1000.722717,351.842102 998.583496,347.912109 
	C998.170715,348.337738 997.076050,349.156281 996.397644,350.236298 
	C995.288574,352.001862 994.450500,353.937592 993.232178,355.373627 
	C993.064453,351.856628 993.162659,348.767548 993.749512,345.033234 
	C997.370544,344.616608 1000.502808,344.845245 1003.635071,345.073914 
	C1004.059814,349.227325 1004.484497,353.380737 1004.483582,357.751709 
z"/>
<path fill="#FEFEFE" opacity="1.000000" stroke="none" 
	d="
M1010.958374,375.713562 
	C1011.092468,375.010742 1011.393738,374.605133 1012.024170,374.004913 
	C1016.167175,376.865692 1016.172729,380.619110 1013.869629,384.402191 
	C1011.521240,388.259766 1007.681702,388.782837 1002.413147,385.843628 
	C1002.564514,384.784332 1002.818237,384.278107 1003.071899,383.771851 
	C1005.133545,384.175262 1007.195129,384.578705 1009.800049,384.998566 
	C1010.601135,384.687225 1010.859070,384.359467 1011.116943,384.031677 
	C1012.992126,381.360077 1013.658936,378.687164 1010.958374,375.713562 
z"/>
<path fill="#FEFEFE" opacity="1.000000" stroke="none" 
	d="
M1011.895386,365.730865 
	C1006.338440,365.578125 1001.140808,365.077667 995.943176,364.577209 
	C995.922913,363.961975 995.902649,363.346771 995.882324,362.731567 
	C997.971069,362.731567 1000.060425,362.698578 1002.148254,362.741821 
	C1003.868835,362.777435 1006.032654,363.472504 1005.640747,360.146637 
	C1008.123352,361.772552 1010.189026,363.577850 1011.895386,365.730865 
z"/>
<path fill="#1A1A1A" opacity="1.000000" stroke="none" 
	d="
M1003.606445,345.048767 
	C1000.502808,344.845245 997.370544,344.616608 994.050842,344.797058 
	C993.863403,345.206146 993.866455,345.115814 994.128235,344.807007 
	C993.569946,343.675995 992.749817,342.853760 991.929688,342.031555 
	C992.230103,341.895264 992.495178,341.708710 992.849548,341.262085 
	C996.677551,343.813385 1000.461975,344.408295 1004.713806,341.302734 
	C1005.130737,341.593750 1005.212036,342.060760 1005.116943,342.896484 
	C1004.470642,343.871368 1004.000854,344.477539 1003.531006,345.083679 
	C1003.531006,345.083679 1003.577820,345.023651 1003.606445,345.048767 
z"/>
<path fill="#FEFEFE" opacity="1.000000" stroke="none" 
	d="
M993.265015,382.780487 
	C992.708496,382.649841 992.484741,382.285889 992.050903,381.316528 
	C991.348999,378.642395 990.857178,376.573639 990.703552,374.233429 
	C992.113281,375.051605 993.784241,375.990570 994.105469,377.268738 
	C994.511353,378.883759 993.817444,380.775055 993.265015,382.780487 
z"/>
<path fill="#FEFEFE" opacity="1.000000" stroke="none" 
	d="
M1012.613159,370.967346 
	C1011.193787,370.751801 1010.158264,370.400055 1008.924438,369.674805 
	C1009.755920,368.399994 1010.785889,367.498718 1011.627502,366.294830 
	C1011.721680,365.379272 1012.004211,364.766266 1012.286743,364.153259 
	C1012.869568,364.602753 1013.976135,365.092682 1013.945007,365.494781 
	C1013.806641,367.287292 1013.343140,369.054718 1012.613159,370.967346 
z"/>
<path fill="#FEFEFE" opacity="1.000000" stroke="none" 
	d="
M1001.618530,374.744995 
	C1001.945068,377.044434 1001.940002,379.111053 1001.381958,381.600891 
	C1000.456726,382.040222 1000.084534,382.056366 999.712280,382.072510 
	C1000.237183,379.552429 1000.762085,377.032349 1001.618530,374.744995 
z"/>
<path fill="#FEFEFE" opacity="1.000000" stroke="none" 
	d="
M991.530396,342.022552 
	C992.749817,342.853760 993.569946,343.675995 994.168823,344.787201 
	C992.810852,344.881470 991.673950,344.686768 990.537109,344.492065 
	C990.735107,343.665894 990.933167,342.839722 991.530396,342.022552 
z"/>
<path fill="#E8E8E8" opacity="1.000000" stroke="none" 
	d="
M999.718384,382.408997 
	C1000.084534,382.056366 1000.456726,382.040222 1001.387573,382.005768 
	C1002.311157,382.436310 1002.676147,382.885193 1003.056519,383.552979 
	C1002.818237,384.278107 1002.564514,384.784332 1002.183350,385.545776 
	C1001.278809,384.782471 1000.501709,383.763977 999.718384,382.408997 
z"/>
<path fill="#FEFEFE" opacity="1.000000" stroke="none" 
	d="
M1006.376831,359.583923 
	C1005.163818,359.528748 1004.283691,359.107422 1003.723389,358.318390 
	C1004.932068,358.373016 1005.820923,358.795410 1006.376831,359.583923 
z"/>
<path fill="#FEFEFE" opacity="1.000000" stroke="none" 
	d="
M1003.801025,345.577881 
	C1004.000854,344.477539 1004.470642,343.871368 1005.230225,343.106384 
	C1006.023132,343.364563 1006.526245,343.781586 1007.029419,344.198608 
	C1006.043274,344.823090 1005.057129,345.447571 1003.801025,345.577881 
z"/>
<path fill="#F8F8F8" opacity="1.000000" stroke="none" 
	d="
M835.088196,74.116150 
	C838.831787,67.598503 842.537231,61.476021 845.954773,55.196842 
	C847.303894,52.718067 848.792908,51.688927 851.751099,51.701298 
	C881.748474,51.826771 911.746704,51.817959 941.744202,51.713539 
	C944.622742,51.703518 946.142029,52.654537 947.562805,55.138859 
	C962.337524,80.974113 977.205872,106.756302 992.183960,132.474167 
	C993.705139,135.086105 993.871704,136.898666 992.278625,139.628967 
	C977.276978,165.339340 962.428345,191.139481 947.656433,216.982788 
	C946.151794,219.615189 944.519531,220.693481 941.417908,220.681305 
	C911.587158,220.564148 881.755371,220.674591 851.925598,220.466095 
	C849.966797,220.452423 847.187378,218.848984 846.196594,217.159836 
	C831.055603,191.344849 816.180359,165.374161 801.137207,139.501373 
	C799.705322,137.038727 799.687073,135.206970 801.142639,132.722397 
	C812.492737,113.348228 823.690186,93.884598 835.088196,74.116150 
M848.702698,71.174667 
	C836.878540,91.604637 825.092896,112.057114 813.181763,132.436264 
	C811.686646,134.994202 811.488342,136.915604 813.073303,139.623199 
	C826.090515,161.859985 838.992981,184.165070 851.729858,206.563446 
	C853.393005,209.488297 855.208618,210.303787 858.405212,210.287781 
	C884.063049,210.159256 909.722107,210.164597 935.380066,210.284836 
	C938.383301,210.298889 940.131958,209.524628 941.679016,206.807938 
	C954.433472,184.410995 967.314026,162.085266 980.290344,139.816071 
	C981.792175,137.238678 982.055603,135.397614 980.452148,132.655563 
	C967.445251,110.412086 954.594604,88.076622 941.830688,65.692528 
	C940.250916,62.922062 938.562012,61.850063 935.257812,61.874302 
	C911.433350,62.049061 887.597778,62.341759 863.786743,61.749046 
	C856.261597,61.561726 851.441528,63.336773 848.702698,71.174667 
z"/>
<path fill="#FEFEFE" opacity="1.000000" stroke="none" 
	d="
M555.521118,23.189568 
	C554.714478,22.539131 554.382446,22.038223 554.050415,21.537317 
	C554.628540,21.387699 555.206665,21.238079 555.784790,21.088455 
	C555.855103,21.838669 555.925415,22.588882 555.521118,23.189568 
z"/>
<path fill="#E8E8E8" opacity="1.000000" stroke="none" 
	d="
M1010.851013,384.091461 
	C1010.859070,384.359467 1010.601135,384.687225 1010.108643,384.978790 
	C1010.110962,384.678802 1010.348022,384.415009 1010.851013,384.091461 
z"/>
<path fill="#0E0E0E" opacity="1.000000" stroke="none" 
	d="
M221.656464,89.712250 
	C221.178421,88.665085 220.550156,87.552612 220.872681,87.048851 
	C223.386658,83.122154 226.083557,79.312561 228.825348,75.319084 
	C230.392960,77.156799 232.446060,79.563652 234.499161,81.970512 
	C235.052612,81.518532 235.606079,81.066551 236.159531,80.614578 
	C233.850418,77.390892 231.391464,74.259903 229.310089,70.895332 
	C228.538254,69.647659 228.652496,67.851845 228.362640,66.306015 
	C229.608841,67.119026 231.191330,67.674797 232.043686,68.789070 
	C235.974365,73.927620 239.791779,79.160309 243.434921,84.505699 
	C244.285797,85.754150 244.298019,87.574173 244.696121,89.131210 
	C243.357132,88.332603 241.967667,87.605064 240.700439,86.705383 
	C240.067444,86.255966 239.657761,85.492020 239.345749,85.112206 
	C233.350891,86.771812 227.648788,88.350372 221.656464,89.712250 
z"/>
<path fill="#010101" opacity="1.000000" stroke="none" 
	d="
M216.073059,88.591904 
	C215.368881,88.931404 214.674271,88.846039 213.964325,88.361137 
	C214.660187,88.030075 215.371399,88.098557 216.073059,88.591904 
z"/>
<path fill="#010101" opacity="1.000000" stroke="none" 
	d="
M217.238815,89.659027 
	C216.593369,89.918564 216.135025,89.789383 215.822693,89.301697 
	C216.454437,89.052238 216.940186,89.161278 217.238815,89.659027 
z"/>
<path fill="#010101" opacity="1.000000" stroke="none" 
	d="
M218.214142,90.636772 
	C217.651199,90.916473 217.247391,90.784531 216.898987,90.299927 
	C217.427353,90.039894 217.900314,90.132507 218.214142,90.636772 
z"/>
<path fill="#010101" opacity="1.000000" stroke="none" 
	d="
M219.099594,91.642960 
	C218.660278,91.936096 218.253616,91.839546 217.898834,91.344940 
	C218.344543,91.049011 218.738403,91.151138 219.099594,91.642960 
z"/>
<path fill="#0B0B0B" opacity="1.000000" stroke="none" 
	d="
M206.281219,93.685455 
	C210.774796,89.847939 215.370209,90.581207 215.954483,95.068939 
	C216.187927,96.862106 215.314758,99.573112 213.977432,100.577309 
	C212.665466,101.562454 209.177567,101.746429 208.333405,100.790573 
	C206.891235,99.157547 206.768234,96.359520 206.281219,93.685455 
z"/>
<path fill="#0B0B0B" opacity="1.000000" stroke="none" 
	d="
M217.775269,112.062637 
	C222.170181,113.461716 223.439087,116.602997 221.488342,119.835274 
	C220.527771,121.426903 216.991562,122.551826 214.957565,122.156334 
	C211.802826,121.542908 210.566299,118.334785 212.119186,115.517387 
	C213.021317,113.880676 215.570404,113.151741 217.775269,112.062637 
z"/>
<path fill="#0B0B0B" opacity="1.000000" stroke="none" 
	d="
M999.005005,340.819305 
	C997.046631,339.543732 994.361328,338.395660 994.183289,336.940765 
	C993.939392,334.947754 995.106812,331.489380 996.567078,330.905914 
	C998.414490,330.167786 1001.952759,330.983337 1003.272827,332.459869 
	C1004.309937,333.619934 1003.384766,336.891571 1002.722290,339.037140 
	C1002.459229,339.889221 1000.553528,340.234192 999.005005,340.819305 
z"/>
<path fill="#171717" opacity="1.000000" stroke="none" 
	d="
M848.875732,70.849609 
	C851.441528,63.336773 856.261597,61.561726 863.786743,61.749046 
	C887.597778,62.341759 911.433350,62.049061 935.257812,61.874302 
	C938.562012,61.850063 940.250916,62.922062 941.830688,65.692528 
	C954.594604,88.076622 967.445251,110.412086 980.452148,132.655563 
	C982.055603,135.397614 981.792175,137.238678 980.290344,139.816071 
	C967.314026,162.085266 954.433472,184.410995 941.679016,206.807938 
	C940.131958,209.524628 938.383301,210.298889 935.380066,210.284836 
	C909.722107,210.164597 884.063049,210.159256 858.405212,210.287781 
	C855.208618,210.303787 853.393005,209.488297 851.729858,206.563446 
	C838.992981,184.165070 826.090515,161.859985 813.073303,139.623199 
	C811.488342,136.915604 811.686646,134.994202 813.181763,132.436264 
	C825.092896,112.057114 836.878540,91.604637 848.875732,70.849609 
M884.216614,206.961563 
	C892.829956,206.968918 901.443237,206.976273 910.612000,207.631378 
	C919.094177,207.733826 927.579041,207.969406 936.055847,207.801010 
	C937.389160,207.774506 939.155823,206.191711 939.929626,204.865997 
	C952.661438,183.052368 965.322021,161.196259 977.782288,139.226974 
	C978.682190,137.640274 978.698792,134.662384 977.802673,133.081512 
	C965.341370,111.099190 952.704407,89.215240 939.896179,67.433250 
	C938.975037,65.866753 936.398254,64.383736 934.579346,64.369308 
	C909.423889,64.169815 884.265991,64.294144 859.109680,64.154137 
	C856.174561,64.137802 854.687378,65.181267 853.314026,67.580307 
	C840.841370,89.368263 828.321411,111.129753 815.657166,132.806610 
	C814.180908,135.333557 814.292297,137.044312 815.730530,139.503540 
	C826.638855,158.154709 838.061279,176.555542 847.885254,195.769730 
	C852.925659,205.628082 858.963867,209.883423 869.733337,208.015366 
	C874.188110,207.242615 878.786804,207.299850 884.216614,206.961563 
z"/>
<path fill="#FEFEFE" opacity="1.000000" stroke="none" 
	d="
M883.320068,206.979614 
	C878.786804,207.299850 874.188110,207.242615 869.733337,208.015366 
	C858.963867,209.883423 852.925659,205.628082 847.885254,195.769730 
	C838.061279,176.555542 826.638855,158.154709 815.730530,139.503540 
	C814.292297,137.044312 814.180908,135.333557 815.657166,132.806610 
	C828.321411,111.129753 840.841370,89.368263 853.314026,67.580307 
	C854.687378,65.181267 856.174561,64.137802 859.109680,64.154137 
	C884.265991,64.294144 909.423889,64.169815 934.579346,64.369308 
	C936.398254,64.383736 938.975037,65.866753 939.896179,67.433250 
	C952.704407,89.215240 965.341370,111.099190 977.802673,133.081512 
	C978.698792,134.662384 978.682190,137.640274 977.782288,139.226974 
	C965.322021,161.196259 952.661438,183.052368 939.929626,204.865997 
	C939.155823,206.191711 937.389160,207.774506 936.055847,207.801010 
	C927.579041,207.969406 919.094177,207.733826 910.473450,206.901520 
	C908.398926,201.146179 907.151672,195.694901 904.368469,191.193207 
	C899.998291,184.124435 900.952087,176.656784 900.495300,169.221481 
	C902.565491,168.520660 904.211548,167.963455 906.560730,167.168198 
	C897.619995,161.915359 904.694458,156.161575 904.500427,151.076538 
	C902.525146,149.458969 899.486084,146.164871 899.792419,145.816986 
	C904.171814,140.844177 897.698547,140.651764 896.853638,138.032272 
	C895.780823,140.712173 890.285522,141.776367 894.142578,146.072876 
	C894.264893,146.209122 890.782715,149.581100 888.450500,151.993179 
	C889.423584,156.465897 895.763672,162.179214 886.879089,167.286469 
	C889.567993,168.126221 891.258667,168.654251 892.765991,169.124985 
	C894.253784,179.296600 891.825439,188.477554 887.015320,196.850906 
	C885.116516,200.156235 883.131958,203.066895 883.320068,206.979614 
z"/>
<path fill="#060606" opacity="1.000000" stroke="none" 
	d="
M883.768311,206.970581 
	C883.131958,203.066895 885.116516,200.156235 887.015320,196.850906 
	C891.825439,188.477554 894.253784,179.296600 892.765991,169.124985 
	C891.258667,168.654251 889.567993,168.126221 886.879089,167.286469 
	C895.763672,162.179214 889.423584,156.465897 888.450500,151.993179 
	C890.782715,149.581100 894.264893,146.209122 894.142578,146.072876 
	C890.285522,141.776367 895.780823,140.712173 896.853638,138.032272 
	C897.698547,140.651764 904.171814,140.844177 899.792419,145.816986 
	C899.486084,146.164871 902.525146,149.458969 904.500427,151.076538 
	C904.694458,156.161575 897.619995,161.915359 906.560730,167.168198 
	C904.211548,167.963455 902.565491,168.520660 900.495300,169.221481 
	C900.952087,176.656784 899.998291,184.124435 904.368469,191.193207 
	C907.151672,195.694901 908.398926,201.146179 910.195740,206.577652 
	C901.443237,206.976273 892.829956,206.968918 883.768311,206.970581 
z"/>
</svg>