<svg version="1.1" id="Layer_1" xmlns="http://www.w3.org/2000/svg" xmlns:xlink="http://www.w3.org/1999/xlink" x="0px" y="0px"
	 width="100%" viewBox="0 0 864 896" enable-background="new 0 0 864 896" xml:space="preserve">
<path fill="#000000" opacity="1.000000" stroke="none" 
	d="
M836.214722,384.802277 
	C837.580688,400.044922 833.991760,413.660858 828.197815,427.307892 
	C824.398682,436.256470 819.291870,443.965454 813.069092,450.922943 
	C798.512878,467.197754 780.779358,478.296661 758.681396,481.204498 
	C735.755615,484.221344 715.649536,476.920502 697.428528,463.660858 
	C692.605835,460.151398 688.102722,459.125336 682.183899,460.215363 
	C631.052979,469.631714 580.323730,480.605469 530.818970,496.774048 
	C504.532501,505.359375 480.648041,518.083618 459.913513,536.465454 
	C438.483032,555.464172 420.175934,577.205200 403.913452,600.722473 
	C402.189789,603.215088 402.258972,605.327698 403.822998,608.040588 
	C418.261139,633.084534 427.963226,659.852905 432.637787,688.414673 
	C434.540588,700.041077 429.870300,710.620117 420.276978,716.225830 
	C410.972229,721.662903 399.322693,720.747070 390.316742,713.848145 
	C387.936096,712.024414 385.549896,710.261230 382.800751,708.964172 
	C372.035248,703.884766 368.840973,694.033875 366.852112,683.418640 
	C361.904785,657.012878 351.510132,632.975647 335.820526,611.137268 
	C324.347198,595.167603 310.793488,581.329224 294.622742,570.208374 
	C274.715179,556.517761 252.520721,548.297607 228.772354,544.302185 
	C214.466461,541.895386 200.084381,540.495850 185.519455,541.946777 
	C176.866348,542.808716 169.082184,540.501038 162.527283,534.396667 
	C160.621017,532.621399 158.078781,531.501831 155.761871,530.199402 
	C145.250549,524.290405 139.886414,512.644897 142.572678,501.456451 
	C145.491440,489.299622 155.076340,481.707550 167.552505,480.739441 
	C194.077713,478.681305 220.071198,481.686829 245.711899,488.308197 
	C249.180771,489.203949 251.359772,488.363068 253.534607,485.775787 
	C273.988251,461.442719 291.666016,435.321320 304.731384,406.249634 
	C313.904572,385.838440 318.435181,364.339447 319.969971,342.046234 
	C321.527252,319.426849 322.339478,296.792358 321.595459,274.154327 
	C320.512695,241.209824 319.186340,208.264664 315.734863,175.451431 
	C315.405731,172.322189 313.852875,170.304733 311.469788,168.509415 
	C303.482819,162.492340 295.703796,156.262497 289.771942,148.029892 
	C278.243011,132.029327 272.917267,114.231972 274.301880,94.558899 
	C275.193054,81.896461 279.652771,70.411064 285.517853,59.161808 
	C288.360779,53.709080 290.501190,47.759781 294.787201,43.407433 
	C307.890625,30.101196 321.857178,17.943123 340.562439,12.891293 
	C359.155304,7.869825 376.929718,10.018299 394.742859,17.069389 
	C411.499420,23.702238 424.655243,35.398003 438.568420,46.006641 
	C507.454742,98.531693 576.162354,151.291229 644.911743,203.995819 
	C699.906494,246.155930 755.183044,287.959167 809.634155,330.810699 
	C823.631470,341.826172 831.478333,358.165131 835.124756,375.947968 
	C835.690918,378.708954 835.852112,381.552917 836.214722,384.802277 
M597.347290,174.166061 
	C581.481201,162.017746 565.616516,149.867615 549.748718,137.721512 
	C505.965332,104.207207 462.082123,70.822060 418.463989,37.094036 
	C407.185211,28.372637 395.082397,22.905962 380.794403,21.680426 
	C361.267517,20.005529 343.595032,25.005789 328.383789,36.834290 
	C314.592072,47.558907 304.040161,61.450584 296.534210,77.287605 
	C285.834747,99.862663 286.874359,122.435043 298.099731,144.573471 
	C304.339050,156.878494 313.950409,166.238815 325.094666,174.104980 
	C328.534332,176.532867 330.896301,179.338486 331.199585,183.814529 
	C332.369995,201.087814 334.102173,218.331024 334.917145,235.618820 
	C336.697327,273.381531 338.160156,311.148712 335.270325,348.952698 
	C333.441437,372.878113 328.828949,395.925049 318.623810,417.867737 
	C305.325012,446.462311 288.274017,472.508820 267.860107,496.451355 
	C265.347534,499.398254 262.812042,500.496948 258.720612,499.341339 
	C233.816025,492.307465 208.339874,490.262787 182.558395,491.319580 
	C166.654099,491.971527 155.945969,503.457367 157.242279,518.480713 
	C158.022812,527.526367 161.674988,530.910278 170.514633,530.838989 
	C178.013290,530.778503 185.512650,530.696045 193.011093,530.736328 
	C205.240494,530.802002 217.181076,533.059998 229.015137,535.867310 
	C253.272049,541.621643 275.211334,552.446167 295.937500,566.141357 
	C327.934662,587.284180 352.752014,614.576416 368.805634,649.566040 
	C375.785034,664.777893 380.328125,680.751343 383.268982,697.198120 
	C385.105865,707.471008 389.648315,710.507202 399.783386,708.085449 
	C401.548584,707.663696 403.345642,707.149841 404.954346,706.335510 
	C415.317352,701.089355 419.686646,690.901917 417.214417,677.359131 
	C412.388428,650.922119 403.577393,625.880859 390.045074,602.632629 
	C387.094421,597.563416 386.975891,593.869995 390.454803,588.768860 
	C405.551727,566.632263 423.203064,546.853088 442.900452,528.750061 
	C461.782410,511.396515 483.043976,498.211731 507.218994,489.538757 
	C528.390686,481.943237 549.919617,475.631348 571.696655,470.078033 
	C606.078674,461.310486 640.762695,453.988342 675.747803,448.080444 
	C677.959045,447.707062 680.166138,447.662720 681.971680,449.106171 
	C686.542175,452.760071 691.908264,455.181152 696.625488,458.527130 
	C707.889343,466.516479 720.463501,470.583649 734.020874,470.634277 
	C759.460571,470.729218 780.603760,461.329895 796.383667,440.750000 
	C806.823792,427.134216 817.708740,413.951050 820.220215,396.032928 
	C824.112427,368.264526 816.853760,344.493561 795.207642,326.148804 
	C777.674072,311.289429 758.869324,298.015656 740.614990,284.055084 
	C692.996887,247.637634 645.463623,211.109360 597.347290,174.166061 
z"/>
<path fill="#000000" opacity="1.000000" stroke="none" 
	d="
M298.300049,608.668335 
	C315.480225,624.510803 329.707214,642.164795 339.020050,663.369385 
	C356.823547,703.906494 357.902161,744.849304 341.636230,786.174438 
	C333.446411,806.981506 321.113403,825.088318 305.097015,840.443115 
	C280.853241,863.685669 251.873779,877.533630 218.492599,882.371765 
	C200.945038,884.914917 183.579330,884.240662 166.340347,880.920959 
	C153.265625,878.403076 140.876801,873.545349 128.491425,868.541504 
	C107.293854,859.977356 90.652328,844.928162 73.310028,830.981750 
	C67.491325,826.302368 63.568272,819.046387 59.016171,812.825867 
	C47.635986,797.274658 39.035889,780.232361 33.929493,761.552124 
	C25.303499,729.996643 26.083061,698.767151 36.815628,667.761169 
	C44.926464,644.329346 57.976341,623.955566 75.642967,606.859253 
	C96.379051,586.792603 121.130905,573.535095 149.418350,567.082642 
	C179.111832,560.309448 208.323288,562.301636 236.908630,572.299744 
	C258.803467,579.957764 278.052094,592.438599 296.053314,606.905884 
	C296.702515,607.427673 297.363312,607.935059 298.300049,608.668335 
M308.141327,809.669800 
	C315.306305,800.201721 321.205811,790.024475 325.771210,779.040833 
	C336.760498,752.602112 340.391571,725.226379 336.138458,696.919189 
	C332.182068,670.586731 322.202606,646.799927 305.778351,625.673279 
	C290.908997,606.546692 272.579773,592.040894 249.850082,583.725647 
	C224.571625,574.477966 198.515350,571.709595 171.759277,576.247253 
	C138.487244,581.890015 109.856728,596.656555 86.565269,620.800537 
	C71.356339,636.566223 59.614410,654.926758 52.255489,675.907471 
	C39.172855,713.206726 40.458679,749.993713 54.921413,786.612061 
	C64.043671,809.708801 80.240318,827.723877 96.523033,845.722412 
	C97.167015,846.434326 98.101898,847.136658 99.005646,847.315308 
	C102.581520,848.022217 105.270889,850.312805 108.210197,852.157959 
	C116.134567,857.132202 124.526482,861.291992 133.337616,864.253479 
	C161.207047,873.620483 189.545700,875.783508 218.405762,868.978821 
	C255.365997,860.264404 285.230377,840.896484 308.141327,809.669800 
z"/>
<path fill="#000000" opacity="1.000000" stroke="none" 
	d="
M417.184998,186.844055 
	C390.383789,166.181564 363.834930,145.775452 337.352814,125.283157 
	C322.469269,113.766022 320.095154,95.552803 331.677795,80.776428 
	C335.741791,75.591835 338.993744,69.761925 344.888367,65.984993 
	C356.057556,58.828415 368.398132,58.872223 379.430664,66.368355 
	C412.934753,89.132957 444.180389,114.893127 476.428772,139.320938 
	C509.227753,164.165833 541.859375,189.231995 574.530334,214.245529 
	C603.360779,236.318710 632.151062,258.444519 660.947388,280.562378 
	C695.295166,306.944214 729.637085,333.333740 763.962646,359.744537 
	C768.185669,362.993805 772.400574,366.269073 776.431702,369.749420 
	C787.635559,379.422607 789.827759,396.266205 780.902832,408.039825 
	C775.734192,414.858276 771.818054,422.959595 763.807861,427.282471 
	C752.671692,433.292328 741.838379,432.637787 731.234253,425.797333 
	C704.313843,408.431824 679.953674,387.628998 654.335510,368.516571 
	C647.462646,363.389069 640.447571,362.444244 632.817993,365.775848 
	C624.485962,369.414124 619.800659,375.907959 618.989563,385.004120 
	C618.170288,394.191803 621.325989,401.631958 628.976379,407.044403 
	C631.557312,408.870331 634.024170,410.861206 636.497314,412.834137 
	C637.520020,413.649933 638.824158,414.493805 638.509644,416.032288 
	C638.134277,417.868134 636.395325,417.889893 634.956238,418.205780 
	C618.369873,421.846222 601.728149,425.253235 585.207520,429.171051 
	C552.133789,437.014526 519.437744,446.171204 488.030365,459.369171 
	C468.737396,467.476501 451.189148,478.553162 435.042297,491.827545 
	C410.859314,511.708527 389.882477,534.616638 371.266571,559.737244 
	C368.288940,563.755310 367.169373,563.713989 363.487061,559.991211 
	C360.679596,557.152893 358.641663,553.067139 353.491730,553.842957 
	C352.802643,553.946777 351.814148,552.853516 351.139923,552.147095 
	C340.490784,540.988037 327.980347,532.199158 315.361298,523.474854 
	C310.606934,520.187927 306.369049,516.212585 301.011749,513.741150 
	C298.342926,512.509949 298.991821,510.223755 300.459869,508.271301 
	C303.163239,504.675995 305.978912,501.164886 308.671173,497.561493 
	C323.058807,478.304596 335.834686,457.998199 346.313293,436.390900 
	C359.852295,408.472839 367.628174,378.979584 370.028625,347.887787 
	C372.252319,319.085327 372.133850,290.292694 371.542114,261.497131 
	C371.231476,246.380646 371.016907,231.194031 369.065521,216.135956 
	C368.875549,214.670120 368.586243,212.961166 370.071136,212.011887 
	C371.864716,210.865265 373.186432,212.347305 374.522980,213.268555 
	C417.468201,242.869003 457.747528,276.005768 499.350769,307.386505 
	C504.803284,311.499298 510.312042,315.546295 515.621338,319.838257 
	C524.863770,327.309723 534.177002,325.621857 541.713013,319.669586 
	C551.710144,311.773468 554.126160,300.592041 549.041748,290.777985 
	C547.413818,287.635590 545.317505,284.988708 542.443298,282.791748 
	C500.752502,250.923767 459.115265,218.985718 417.184998,186.844055 
M485.313293,302.191406 
	C452.201630,276.836426 419.089996,251.481461 385.843170,226.022964 
	C384.682709,228.340027 385.145203,230.191376 385.218536,231.967987 
	C385.836487,246.941193 386.918060,261.906616 387.104919,276.883820 
	C387.472595,306.355560 387.262329,335.804749 384.354279,365.213074 
	C381.618256,392.881653 374.126343,419.129913 362.188354,444.052368 
	C351.674713,466.001251 339.033966,486.759857 324.098938,506.056946 
	C320.987396,510.077332 318.093506,514.266113 314.829224,518.748108 
	C329.835999,527.954224 343.702271,537.640869 356.176971,549.459167 
	C357.116089,548.598633 357.799835,548.134094 358.277069,547.511230 
	C371.963013,529.650818 386.385071,512.471558 402.885498,497.070648 
	C415.813446,485.004211 429.411530,473.839081 444.320679,464.342346 
	C473.048309,446.043579 505.277557,436.370819 537.585327,427.007904 
	C563.659302,419.451538 590.174011,413.661285 616.702881,407.957214 
	C618.184143,407.638702 620.114807,407.935242 620.818848,405.688904 
	C616.040588,401.812042 610.604126,398.522308 607.343933,393.190643 
	C600.864258,382.593903 602.628418,368.696655 611.199585,360.002441 
	C619.189880,351.897430 632.428650,350.054688 643.013794,356.353729 
	C651.002563,361.107697 658.995667,365.900970 666.386597,371.667175 
	C685.294067,386.418335 704.346130,400.987457 723.494690,415.424652 
	C732.225647,422.007355 742.760071,421.559174 751.690125,415.070160 
	C757.506348,410.843811 761.087463,404.768585 765.281250,399.210693 
	C774.494141,387.001190 772.230713,370.885223 760.045044,361.561279 
	C724.589905,334.432434 689.090637,307.361206 653.640625,280.225739 
	C624.939819,258.256622 596.286865,236.224976 567.609741,214.224991 
	C532.454895,187.255569 497.295441,160.292084 462.140717,133.322479 
	C437.425171,114.361488 412.743683,95.355904 387.984650,76.451904 
	C379.627930,70.071381 366.260193,70.307732 358.758575,77.008347 
	C351.878906,83.153442 346.182861,90.331619 342.008087,98.594963 
	C337.488525,107.540649 339.394806,119.511513 346.833649,126.167679 
	C360.498383,138.394699 375.630829,148.782211 390.146729,159.940826 
	C423.554840,185.622162 457.074432,211.158630 490.458466,236.871170 
	C512.360107,253.739929 534.447815,270.366638 555.991577,287.703400 
	C568.968201,298.146057 570.023804,314.908661 560.840210,326.291565 
	C553.611755,335.251129 538.700012,339.698029 525.155579,330.945740 
	C511.559479,322.160034 498.576416,312.612915 485.313293,302.191406 
z"/>
<path fill="#000000" opacity="1.000000" stroke="none" 
	d="
M282.460022,665.603821 
	C298.155945,687.714111 304.764648,712.104187 302.033661,738.557068 
	C299.328766,764.757324 288.602356,787.337463 268.758850,805.321167 
	C246.781586,825.238708 221.048355,834.306274 191.561813,833.282715 
	C170.691254,832.558228 152.073822,825.191833 134.706589,814.109558 
	C122.006660,806.005554 110.376984,796.725647 101.068352,784.685608 
	C85.612381,764.694580 78.126785,742.122681 78.613464,716.914307 
	C79.126144,690.359802 88.317337,667.036804 106.232994,647.567688 
	C122.881721,629.475342 143.722015,618.620300 168.142792,614.892822 
	C190.735901,611.444336 212.561646,614.584351 232.625427,625.165100 
	C251.647522,635.196472 269.248291,647.574890 282.460022,665.603821 
M242.065445,635.453979 
	C224.889069,626.709229 206.830948,623.145630 187.517960,625.062317 
	C158.889389,627.903687 135.208679,640.115295 117.093773,662.246948 
	C96.989838,686.808716 89.919365,715.232239 95.490669,746.451965 
	C99.529999,769.087036 109.969200,788.444519 127.513992,803.660461 
	C143.302689,817.353455 162.377533,822.417114 182.536850,822.587830 
	C214.348038,822.857239 241.210419,810.760071 262.430328,786.876770 
	C272.871185,775.125305 279.755920,761.375305 283.911957,746.225891 
	C289.600159,725.491577 288.724976,704.926636 281.459778,684.833130 
	C274.035919,664.300964 262.265472,646.908875 242.065445,635.453979 
z"/>
</svg>