<svg version="1.1" id="Layer_1" xmlns="http://www.w3.org/2000/svg" xmlns:xlink="http://www.w3.org/1999/xlink" x="0px" y="0px"
	 width="100%" viewBox="0 0 800 912" enable-background="new 0 0 800 912" xml:space="preserve">
<path fill="#000000" opacity="1.000000" stroke="none" 
	d="
M801.000000,214.531342 
	C796.015320,231.129074 789.521301,246.568802 780.124023,260.680908 
	C760.076355,290.786804 733.108826,311.972992 698.804565,323.655151 
	C666.128235,334.783020 632.740906,335.847504 599.287109,328.807587 
	C573.215881,323.321228 549.881531,311.691284 529.513306,293.992249 
	C500.850067,269.085236 483.332428,238.052795 476.380707,200.960815 
	C471.696014,175.965149 473.526764,151.269836 481.020569,126.969215 
	C487.640656,105.501732 498.264801,86.200653 513.082458,69.394157 
	C538.960632,40.042477 571.546814,22.587955 610.181274,16.858912 
	C635.081116,13.166553 659.987000,13.620824 684.594055,19.620291 
	C692.035583,21.434614 699.111328,24.689219 706.464905,26.497366 
	C723.558838,30.700554 736.218933,42.312382 750.176208,51.583874 
	C756.411499,55.725834 760.778015,62.752003 765.936401,68.505272 
	C780.202271,84.416466 790.620667,102.701622 797.636841,122.897377 
	C798.726135,126.033028 799.599487,129.243729 800.786377,132.709869 
	C801.000000,160.020889 801.000000,187.041794 801.000000,214.531342 
M491.978973,182.924713 
	C492.662537,196.128418 495.091003,208.953323 499.148163,221.586166 
	C507.863861,248.724319 522.889404,271.740082 544.132141,290.501923 
	C560.765442,305.192596 579.917175,315.607422 601.196655,322.453644 
	C629.819153,331.662292 658.030701,330.402344 685.873169,320.283569 
	C716.236816,309.248444 740.910522,290.460876 759.554810,263.841980 
	C771.249207,247.145630 779.490601,229.041519 784.251343,209.212326 
	C788.739563,190.518051 789.669739,171.743927 786.933899,152.759811 
	C782.085571,119.115944 768.054688,89.988289 744.470459,65.375923 
	C739.606567,60.300007 733.209656,56.864841 729.195862,51.106213 
	C724.072388,43.755733 716.575989,39.032333 708.839417,36.644276 
	C700.372864,34.030842 692.844727,29.540279 684.409607,26.977871 
	C672.919128,23.487310 661.486633,20.139889 649.478638,19.267349 
	C631.457031,17.957832 613.961182,20.590754 596.873291,26.408323 
	C568.208130,36.167400 544.314331,52.879311 525.695190,76.604118 
	C514.164062,91.297325 504.953766,107.462013 499.283875,125.557465 
	C493.494598,144.033859 490.765045,162.765839 491.978973,182.924713 
z"/>
<path fill="#000000" opacity="1.000000" stroke="none" 
	d="
M620.480591,416.716400 
	C613.897034,416.042145 607.737549,415.678864 601.648682,414.816589 
	C598.902405,414.427734 597.176880,415.176117 595.709839,417.290344 
	C581.251099,438.127411 568.098267,459.680878 558.263062,483.172302 
	C552.337341,497.325745 547.189209,511.694702 544.347046,526.782166 
	C540.560364,546.884033 540.803772,567.193726 541.669617,587.527954 
	C542.647583,610.496460 544.819397,633.369019 547.430115,656.187866 
	C550.495422,682.979370 554.826538,709.600220 559.325134,736.188782 
	C559.877136,739.450989 562.297607,740.826660 564.705383,742.314209 
	C575.972595,749.275391 586.413696,757.094849 593.784668,768.449829 
	C607.739014,789.946350 612.053894,812.941345 604.033020,837.518005 
	C600.558167,848.165222 597.378113,859.289795 590.147156,868.114502 
	C572.127258,890.106018 550.603699,906.082214 520.479309,906.289734 
	C505.124054,906.395508 490.127747,905.665100 475.151093,900.844543 
	C464.140076,897.300476 455.538727,890.503723 446.270233,884.616211 
	C401.836304,856.391602 357.647644,827.780273 313.407471,799.251221 
	C254.889313,761.514771 196.416519,723.708069 137.899857,685.969299 
	C109.060135,667.369995 80.204559,648.794617 51.279984,630.327637 
	C36.033924,620.593811 25.639950,606.833557 18.838308,590.474915 
	C10.251883,569.823608 11.553261,549.280884 19.328249,528.257202 
	C22.514887,519.640442 26.612043,511.852020 31.870590,504.903046 
	C46.233692,485.922760 64.689629,472.391449 88.859940,469.016296 
	C107.095825,466.469849 125.394394,466.431641 143.144547,472.857117 
	C149.461655,475.143890 155.173096,478.530273 160.918137,481.877838 
	C163.160187,483.184235 165.292465,484.095306 167.976456,483.368713 
	C220.569901,469.130371 272.629425,453.397980 322.555939,431.172882 
	C353.143829,417.556519 377.199402,396.219635 398.287537,370.794098 
	C411.640656,354.694550 422.757843,337.151733 433.662018,319.408051 
	C435.348358,316.664001 434.951477,314.920990 433.182434,312.335114 
	C415.999634,287.218628 403.483246,259.971283 396.575714,230.262543 
	C392.916351,214.523941 407.881958,197.665115 424.416534,199.076721 
	C428.595978,199.433517 432.640686,199.421494 436.809875,199.087189 
	C448.970306,198.112045 460.082336,206.573593 463.912964,219.801056 
	C467.623657,232.614227 471.774933,245.216537 477.719727,257.208984 
	C485.970551,273.853516 496.331635,288.936584 509.062378,302.522217 
	C521.562866,315.862152 535.384338,327.492767 551.201355,336.579437 
	C581.862366,354.193787 614.689392,363.990356 650.335388,361.620850 
	C660.135864,360.969360 669.903809,361.049164 679.667480,360.597015 
	C694.583496,359.906281 706.295044,371.233551 707.895325,384.736053 
	C709.463501,397.967926 700.293091,410.370392 686.109497,413.316101 
	C664.587769,417.785767 642.772461,417.748505 620.480591,416.716400 
M429.063263,354.525208 
	C419.962463,366.849792 410.470184,378.832916 399.721497,389.804047 
	C388.979126,400.768829 377.687317,411.049408 364.669891,419.266083 
	C343.556366,432.593109 320.425446,441.609650 297.182068,450.282501 
	C260.492676,463.972443 223.048950,475.340057 185.210144,485.358215 
	C178.074921,487.247345 170.852158,491.425537 162.982758,487.468781 
	C162.277435,487.114136 161.021454,487.637909 160.098541,487.969208 
	C155.311386,489.687531 151.057159,489.027069 147.026245,485.767700 
	C144.712692,483.896973 142.007645,482.490509 139.410690,480.993286 
	C117.611443,468.425415 96.139580,468.836639 74.893044,482.477417 
	C54.925510,495.297119 43.138638,514.501038 34.794910,535.750244 
	C22.765121,566.386841 34.492989,603.679199 61.680988,622.258057 
	C86.563309,639.261292 111.959236,655.519287 137.267380,671.891418 
	C178.096634,698.304443 219.049835,724.525757 259.931641,750.857544 
	C297.172791,774.844360 334.378326,798.886292 371.618683,822.874268 
	C403.542358,843.437500 435.443542,864.036499 467.463318,884.449280 
	C476.554138,890.244629 485.614563,895.998108 496.042816,899.582275 
	C516.773499,906.707397 534.255737,899.777527 550.950439,888.378296 
	C563.737183,879.647644 571.360596,866.566223 579.042236,853.719971 
	C594.334229,828.146667 594.446472,801.982117 580.623413,775.789673 
	C573.431152,762.161560 562.391907,752.158752 549.019714,744.738892 
	C544.747192,742.368225 542.473267,739.202759 541.627808,734.295044 
	C537.275024,709.027222 533.675598,683.663147 530.536499,658.214844 
	C526.209656,623.137207 523.121216,588.005249 523.920898,552.624756 
	C524.322937,534.838318 527.894226,517.560425 533.595947,500.790497 
	C540.089905,481.690399 548.894165,463.595215 558.832092,446.045715 
	C564.830750,435.452667 571.265747,425.141541 578.516602,415.364075 
	C580.254272,413.020996 582.047485,409.375427 585.199890,409.968933 
	C591.503723,411.155731 597.719543,409.016144 603.789124,409.980957 
	C623.630310,413.134918 643.441650,413.905029 663.459106,411.826324 
	C679.994507,410.109253 689.076721,402.631805 690.392517,387.822937 
	C691.494751,375.417542 679.428650,363.080566 668.157227,364.389038 
	C627.216553,369.141785 587.563599,364.871185 549.893188,346.696228 
	C516.774048,330.717102 490.540436,307.240204 470.666992,276.458038 
	C459.354950,258.936615 451.904297,239.752151 446.286774,219.778915 
	C444.497314,213.416504 440.828003,208.459900 435.213226,204.921768 
	C432.068787,202.940353 429.152130,203.084366 425.829071,204.803864 
	C417.714355,209.002792 411.256134,220.993439 414.666870,233.687454 
	C422.175720,261.633698 434.011688,287.520660 450.502594,311.246490 
	C452.790955,314.538757 452.854004,317.104950 451.052155,320.336304 
	C444.554565,331.988586 437.444153,343.240204 429.063263,354.525208 
z"/>
<path fill="#000000" opacity="1.000000" stroke="none" 
	d="
M656.591553,66.740143 
	C674.990601,68.175362 691.669617,73.986473 706.461365,83.932732 
	C732.752808,101.611542 748.944275,126.450409 753.608215,157.889236 
	C758.580872,191.408997 749.763550,221.187851 726.588013,246.313980 
	C704.946960,269.776550 677.836182,280.769531 646.198608,281.286194 
	C631.531921,281.525726 616.912354,281.515900 602.661255,277.082642 
	C585.168640,271.641052 569.881775,262.641388 556.838257,249.768860 
	C536.660278,229.855286 526.687012,205.366653 525.208740,177.431046 
	C524.177368,157.941330 528.611145,139.292984 538.035278,122.228027 
	C550.000671,100.561424 567.602417,84.779831 590.483032,75.026360 
	C609.142273,67.072357 628.685913,65.100845 648.705505,66.219444 
	C651.195618,66.358582 653.682251,66.559212 656.591553,66.740143 
M718.545715,113.945732 
	C711.716003,104.176918 703.521057,95.804169 693.744751,88.910477 
	C679.472778,78.846626 663.924500,71.393120 646.458191,70.479263 
	C612.193970,68.686531 585.217773,83.706429 564.421143,109.986198 
	C546.744141,132.323822 540.347900,158.273376 543.460205,186.486343 
	C545.672241,206.538177 553.556519,224.432465 566.167847,240.010773 
	C578.567871,255.328064 594.236755,266.430817 613.036133,272.722626 
	C623.496582,276.223511 634.230774,278.726990 645.372437,277.493073 
	C690.903320,272.450592 726.693726,238.508011 735.286255,194.123367 
	C740.779236,165.749649 735.580505,138.771301 718.545715,113.945732 
z"/>
<path fill="#000000" opacity="1.000000" stroke="none" 
	d="
M213.198639,575.758423 
	C218.461304,578.349854 223.971970,576.217773 229.100418,569.904419 
	C237.260223,559.859375 234.967499,543.213379 224.331085,535.713928 
	C221.201782,533.507507 217.929077,531.504944 214.730194,529.396606 
	C213.381912,528.507996 211.426102,527.952454 211.734299,525.859009 
	C212.037399,523.800110 214.109238,523.678894 215.607727,523.213623 
	C229.121109,519.017395 242.733826,515.129028 256.178772,510.726959 
	C294.814941,498.076935 333.221497,484.775574 368.719849,464.527618 
	C387.625153,453.744171 404.154205,439.782043 419.188324,424.137299 
	C438.168427,404.386322 454.719727,382.698761 469.292389,359.499359 
	C472.847595,353.839600 473.449951,353.846344 478.526794,358.524689 
	C479.726410,359.630188 480.854736,360.932709 482.630981,361.128784 
	C489.291260,354.867004 489.097748,355.127075 496.904144,360.935242 
	C512.007385,372.172546 527.363708,383.083221 544.774170,390.603088 
	C548.552979,392.235229 549.081421,394.514374 546.907349,397.612091 
	C537.311890,411.284393 529.562378,426.029663 521.773376,440.746979 
	C510.438568,462.164001 501.809662,484.643860 496.170258,508.208557 
	C489.434967,536.352539 489.783020,564.929932 490.954620,593.618042 
	C492.390594,628.778259 496.823181,663.587280 501.832062,698.355408 
	C502.046204,699.841797 502.459381,701.471252 500.942810,702.461914 
	C499.338928,703.509399 498.142975,702.137390 496.916351,701.375793 
	C493.720245,699.391479 490.548737,697.367615 487.071533,695.172729 
	C486.361511,704.604919 486.421844,704.511475 478.548126,699.426941 
	C430.415192,668.344543 382.262329,637.292908 334.089325,606.272644 
	C326.929230,601.661987 322.489899,602.686951 316.772644,609.151550 
	C305.476074,621.924805 310.203186,638.919495 321.937012,646.289062 
	C350.847595,664.446472 379.471924,683.060547 408.173309,701.550049 
	C435.756348,719.319153 463.284607,737.173279 490.850555,754.968933 
	C507.783417,765.900208 524.733521,776.804626 541.691162,787.697388 
	C557.296509,797.721436 561.227844,815.938782 551.075623,831.582825 
	C547.556641,837.005310 544.772766,842.922485 539.661560,847.252930 
	C532.672241,853.174622 524.786682,855.777527 515.664001,854.844055 
	C513.537537,854.626404 511.346313,854.757019 509.209747,854.973206 
	C501.259857,855.777405 494.145508,853.778687 487.433441,849.434937 
	C427.305969,810.523438 367.132477,771.682922 306.958557,732.843201 
	C261.898346,703.758789 216.832718,674.682739 171.740753,645.647644 
	C141.213531,625.990906 110.786964,606.171326 80.014534,586.905090 
	C65.876404,578.053345 60.555889,563.031067 65.346802,552.156128 
	C71.918793,537.238220 78.858856,521.191650 98.204521,519.590576 
	C111.381706,518.500122 124.542450,517.995972 136.892822,526.567810 
	C160.276031,542.797058 184.648010,557.601807 208.614014,572.990906 
	C210.013351,573.889465 211.455505,574.721313 213.198639,575.758423 
M336.336853,598.861633 
	C341.936798,598.997498 346.556519,601.764648 351.033295,604.636963 
	C393.090820,631.620728 435.100250,658.679504 477.144989,685.683228 
	C478.566315,686.596130 479.889618,688.032166 482.125946,687.678284 
	C482.070587,686.652954 482.068542,685.837158 481.976990,685.031555 
	C478.441895,653.931458 475.240662,622.814758 473.317566,591.550171 
	C470.623199,547.747864 475.012573,505.109985 492.527527,464.506714 
	C500.700195,445.560760 509.947723,427.092804 521.356934,409.802521 
	C524.542297,404.975098 527.505249,400.000854 530.670471,394.933441 
	C529.588806,394.184387 528.963379,393.662537 528.262268,393.278839 
	C514.092773,385.524689 499.714081,378.109406 487.084015,367.864532 
	C484.362457,365.657013 482.567169,366.255493 480.697723,369.196014 
	C465.631744,392.893829 448.141815,414.635315 427.735352,433.968689 
	C414.654053,446.362030 400.779327,457.812592 385.041473,466.673523 
	C344.297913,489.613342 300.164215,504.156891 255.861313,518.226013 
	C247.582321,520.855103 239.248337,523.311096 230.087738,526.106995 
	C234.541611,529.234863 238.197037,531.523132 241.538971,534.202393 
	C250.771286,541.604126 253.318115,551.613098 250.419128,562.488892 
	C247.557449,573.224792 239.699280,579.321228 228.667511,581.314331 
	C224.134018,582.133362 219.663239,580.538086 215.228531,581.235779 
	C205.637604,582.744568 197.788177,579.086304 190.013428,574.011719 
	C165.602737,558.078796 141.034592,542.386108 116.458229,526.708801 
	C108.792671,521.818970 105.618851,522.389038 98.576759,528.199951 
	C92.864464,532.913635 89.766617,539.464844 85.937698,545.450806 
	C77.376869,558.834595 81.298386,575.190613 94.698349,583.746399 
	C101.157425,587.870422 107.599052,592.021912 114.038475,596.176636 
	C165.550186,629.411499 217.050491,662.663940 268.572052,695.883423 
	C317.717529,727.570984 366.879913,759.232300 416.043701,790.891357 
	C445.036194,809.561157 474.039978,828.213318 503.051453,846.853577 
	C511.826630,852.491821 516.513794,851.876038 523.700317,844.590759 
	C527.858215,840.375793 530.655151,835.241211 533.792236,830.345947 
	C543.841064,814.665222 540.093933,799.216492 524.358093,789.211975 
	C498.353729,772.678955 472.484314,755.933411 446.583191,739.238403 
	C413.543182,717.941956 380.460297,696.710876 347.532684,675.241821 
	C332.471985,665.422180 316.795441,656.496094 302.518005,645.533630 
	C293.255402,638.421753 290.628479,626.932129 294.759766,615.841675 
	C298.566345,605.622864 308.933563,598.448608 320.056183,598.921143 
	C325.209839,599.140137 330.321350,599.497131 336.336853,598.861633 
z"/>
</svg>